ISO-10303-21;
HEADER;
/* Generated by software containing ST-Developer
 * from STEP Tools, Inc. (www.steptools.com) 
 */

FILE_DESCRIPTION(
/* description */ (''),
/* implementation_level */ '2;1');

FILE_NAME(
/* name */ 'Base.stp',
/* time_stamp */ '2026-04-26T10:37:29-07:00',
/* author */ ('bh'),
/* organization */ (''),
/* preprocessor_version */ 'ST-DEVELOPER v20.1',
/* originating_system */ 'Autodesk Inventor 2026',
/* authorisation */ '');

FILE_SCHEMA (('AUTOMOTIVE_DESIGN { 1 0 10303 214 3 1 1 }'));
ENDSEC;

DATA;
#10=MECHANICAL_DESIGN_GEOMETRIC_PRESENTATION_REPRESENTATION('',(#611,#612,
#613,#614,#615,#616,#617,#618,#619,#620,#621,#622,#623,#624,#625,#626,#627,
#628,#629,#630,#631,#632,#633,#634,#635,#636,#637,#638,#639,#640,#641,#642,
#643,#644,#645,#646),#1149);
#11=SHAPE_REPRESENTATION_RELATIONSHIP('SRR','None',#1156,#12);
#12=ADVANCED_BREP_SHAPE_REPRESENTATION('',(#13),#1148);
#13=MANIFOLD_SOLID_BREP('Solid1',#682);
#14=FACE_BOUND('',#91,.T.);
#15=FACE_BOUND('',#92,.T.);
#16=FACE_BOUND('',#93,.T.);
#17=FACE_BOUND('',#94,.T.);
#18=FACE_BOUND('',#100,.T.);
#19=FACE_BOUND('',#102,.T.);
#20=FACE_BOUND('',#104,.T.);
#21=FACE_BOUND('',#112,.T.);
#22=FACE_BOUND('',#124,.T.);
#23=FACE_BOUND('',#125,.T.);
#24=FACE_BOUND('',#126,.T.);
#25=FACE_BOUND('',#127,.T.);
#26=FACE_BOUND('',#128,.T.);
#27=PLANE('',#708);
#28=PLANE('',#712);
#29=PLANE('',#713);
#30=PLANE('',#720);
#31=PLANE('',#721);
#32=PLANE('',#722);
#33=PLANE('',#739);
#34=PLANE('',#741);
#35=PLANE('',#743);
#36=PLANE('',#756);
#37=PLANE('',#757);
#38=PLANE('',#760);
#39=PLANE('',#765);
#40=PLANE('',#766);
#41=PLANE('',#767);
#42=PLANE('',#768);
#43=PLANE('',#769);
#44=PLANE('',#770);
#45=PLANE('',#771);
#46=FACE_OUTER_BOUND('',#81,.T.);
#47=FACE_OUTER_BOUND('',#82,.T.);
#48=FACE_OUTER_BOUND('',#83,.T.);
#49=FACE_OUTER_BOUND('',#84,.T.);
#50=FACE_OUTER_BOUND('',#85,.T.);
#51=FACE_OUTER_BOUND('',#86,.T.);
#52=FACE_OUTER_BOUND('',#87,.T.);
#53=FACE_OUTER_BOUND('',#88,.T.);
#54=FACE_OUTER_BOUND('',#89,.T.);
#55=FACE_OUTER_BOUND('',#90,.T.);
#56=FACE_OUTER_BOUND('',#95,.T.);
#57=FACE_OUTER_BOUND('',#96,.T.);
#58=FACE_OUTER_BOUND('',#97,.T.);
#59=FACE_OUTER_BOUND('',#98,.T.);
#60=FACE_OUTER_BOUND('',#99,.T.);
#61=FACE_OUTER_BOUND('',#101,.T.);
#62=FACE_OUTER_BOUND('',#103,.T.);
#63=FACE_OUTER_BOUND('',#105,.T.);
#64=FACE_OUTER_BOUND('',#106,.T.);
#65=FACE_OUTER_BOUND('',#107,.T.);
#66=FACE_OUTER_BOUND('',#108,.T.);
#67=FACE_OUTER_BOUND('',#109,.T.);
#68=FACE_OUTER_BOUND('',#110,.T.);
#69=FACE_OUTER_BOUND('',#111,.T.);
#70=FACE_OUTER_BOUND('',#113,.T.);
#71=FACE_OUTER_BOUND('',#114,.T.);
#72=FACE_OUTER_BOUND('',#115,.T.);
#73=FACE_OUTER_BOUND('',#116,.T.);
#74=FACE_OUTER_BOUND('',#117,.T.);
#75=FACE_OUTER_BOUND('',#118,.T.);
#76=FACE_OUTER_BOUND('',#119,.T.);
#77=FACE_OUTER_BOUND('',#120,.T.);
#78=FACE_OUTER_BOUND('',#121,.T.);
#79=FACE_OUTER_BOUND('',#122,.T.);
#80=FACE_OUTER_BOUND('',#123,.T.);
#81=EDGE_LOOP('',(#419,#420,#421,#422));
#82=EDGE_LOOP('',(#423,#424,#425,#426,#427));
#83=EDGE_LOOP('',(#428,#429,#430,#431));
#84=EDGE_LOOP('',(#432,#433,#434,#435,#436));
#85=EDGE_LOOP('',(#437,#438,#439,#440,#441,#442,#443,#444,#445,#446,#447,
#448));
#86=EDGE_LOOP('',(#449,#450,#451,#452));
#87=EDGE_LOOP('',(#453,#454,#455,#456));
#88=EDGE_LOOP('',(#457,#458,#459,#460));
#89=EDGE_LOOP('',(#461,#462,#463,#464,#465,#466));
#90=EDGE_LOOP('',(#467,#468,#469,#470,#471,#472,#473,#474,#475,#476,#477,
#478));
#91=EDGE_LOOP('',(#479));
#92=EDGE_LOOP('',(#480));
#93=EDGE_LOOP('',(#481));
#94=EDGE_LOOP('',(#482));
#95=EDGE_LOOP('',(#483,#484,#485,#486));
#96=EDGE_LOOP('',(#487,#488,#489,#490));
#97=EDGE_LOOP('',(#491,#492,#493,#494));
#98=EDGE_LOOP('',(#495,#496,#497,#498));
#99=EDGE_LOOP('',(#499));
#100=EDGE_LOOP('',(#500));
#101=EDGE_LOOP('',(#501));
#102=EDGE_LOOP('',(#502));
#103=EDGE_LOOP('',(#503));
#104=EDGE_LOOP('',(#504));
#105=EDGE_LOOP('',(#505,#506,#507,#508));
#106=EDGE_LOOP('',(#509,#510,#511,#512));
#107=EDGE_LOOP('',(#513,#514,#515,#516));
#108=EDGE_LOOP('',(#517,#518,#519,#520));
#109=EDGE_LOOP('',(#521,#522,#523,#524));
#110=EDGE_LOOP('',(#525,#526,#527,#528));
#111=EDGE_LOOP('',(#529));
#112=EDGE_LOOP('',(#530));
#113=EDGE_LOOP('',(#531,#532,#533,#534));
#114=EDGE_LOOP('',(#535,#536,#537,#538));
#115=EDGE_LOOP('',(#539,#540,#541,#542));
#116=EDGE_LOOP('',(#543,#544,#545,#546));
#117=EDGE_LOOP('',(#547,#548,#549,#550));
#118=EDGE_LOOP('',(#551,#552,#553,#554,#555,#556));
#119=EDGE_LOOP('',(#557,#558,#559,#560));
#120=EDGE_LOOP('',(#561,#562,#563,#564));
#121=EDGE_LOOP('',(#565,#566,#567,#568,#569,#570,#571,#572,#573,#574));
#122=EDGE_LOOP('',(#575,#576,#577,#578));
#123=EDGE_LOOP('',(#579,#580,#581,#582,#583,#584,#585,#586));
#124=EDGE_LOOP('',(#587));
#125=EDGE_LOOP('',(#588));
#126=EDGE_LOOP('',(#589));
#127=EDGE_LOOP('',(#590));
#128=EDGE_LOOP('',(#591,#592,#593,#594));
#129=LINE('',#970,#185);
#130=LINE('',#973,#186);
#131=LINE('',#976,#187);
#132=LINE('',#978,#188);
#133=LINE('',#980,#189);
#134=LINE('',#981,#190);
#135=LINE('',#987,#191);
#136=LINE('',#990,#192);
#137=LINE('',#993,#193);
#138=LINE('',#995,#194);
#139=LINE('',#997,#195);
#140=LINE('',#998,#196);
#141=LINE('',#1001,#197);
#142=LINE('',#1003,#198);
#143=LINE('',#1005,#199);
#144=LINE('',#1007,#200);
#145=LINE('',#1009,#201);
#146=LINE('',#1012,#202);
#147=LINE('',#1016,#203);
#148=LINE('',#1020,#204);
#149=LINE('',#1023,#205);
#150=LINE('',#1025,#206);
#151=LINE('',#1026,#207);
#152=LINE('',#1031,#208);
#153=LINE('',#1035,#209);
#154=LINE('',#1039,#210);
#155=LINE('',#1051,#211);
#156=LINE('',#1055,#212);
#157=LINE('',#1059,#213);
#158=LINE('',#1063,#214);
#159=LINE('',#1076,#215);
#160=LINE('',#1080,#216);
#161=LINE('',#1086,#217);
#162=LINE('',#1090,#218);
#163=LINE('',#1096,#219);
#164=LINE('',#1097,#220);
#165=LINE('',#1100,#221);
#166=LINE('',#1101,#222);
#167=LINE('',#1105,#223);
#168=LINE('',#1109,#224);
#169=LINE('',#1110,#225);
#170=LINE('',#1116,#226);
#171=LINE('',#1118,#227);
#172=LINE('',#1122,#228);
#173=LINE('',#1124,#229);
#174=LINE('',#1125,#230);
#175=LINE('',#1127,#231);
#176=LINE('',#1128,#232);
#177=LINE('',#1131,#233);
#178=LINE('',#1133,#234);
#179=LINE('',#1134,#235);
#180=LINE('',#1137,#236);
#181=LINE('',#1138,#237);
#182=LINE('',#1141,#238);
#183=LINE('',#1142,#239);
#184=LINE('',#1144,#240);
#185=VECTOR('',#778,10.);
#186=VECTOR('',#781,10.);
#187=VECTOR('',#784,10.);
#188=VECTOR('',#785,10.);
#189=VECTOR('',#786,10.);
#190=VECTOR('',#787,10.);
#191=VECTOR('',#792,10.);
#192=VECTOR('',#795,10.);
#193=VECTOR('',#798,10.);
#194=VECTOR('',#799,10.);
#195=VECTOR('',#800,10.);
#196=VECTOR('',#801,10.);
#197=VECTOR('',#804,10.);
#198=VECTOR('',#805,10.);
#199=VECTOR('',#806,10.);
#200=VECTOR('',#807,10.);
#201=VECTOR('',#808,10.);
#202=VECTOR('',#811,10.);
#203=VECTOR('',#816,10.);
#204=VECTOR('',#821,10.);
#205=VECTOR('',#826,10.);
#206=VECTOR('',#829,10.);
#207=VECTOR('',#830,10.);
#208=VECTOR('',#835,10.);
#209=VECTOR('',#838,10.);
#210=VECTOR('',#841,10.);
#211=VECTOR('',#854,2.85);
#212=VECTOR('',#859,2.95);
#213=VECTOR('',#864,2.95);
#214=VECTOR('',#869,2.85000000000001);
#215=VECTOR('',#886,1.55);
#216=VECTOR('',#891,1.55);
#217=VECTOR('',#898,1.55);
#218=VECTOR('',#903,1.55);
#219=VECTOR('',#910,10.);
#220=VECTOR('',#911,10.);
#221=VECTOR('',#914,10.);
#222=VECTOR('',#915,10.);
#223=VECTOR('',#920,10.);
#224=VECTOR('',#925,10.);
#225=VECTOR('',#926,10.);
#226=VECTOR('',#935,10.);
#227=VECTOR('',#938,10.);
#228=VECTOR('',#941,10.);
#229=VECTOR('',#942,10.);
#230=VECTOR('',#943,10.);
#231=VECTOR('',#944,10.);
#232=VECTOR('',#945,10.);
#233=VECTOR('',#948,10.);
#234=VECTOR('',#949,10.);
#235=VECTOR('',#950,10.);
#236=VECTOR('',#953,10.);
#237=VECTOR('',#954,10.);
#238=VECTOR('',#957,10.);
#239=VECTOR('',#958,10.);
#240=VECTOR('',#961,10.);
#241=CIRCLE('',#706,2.);
#242=CIRCLE('',#707,2.);
#243=CIRCLE('',#710,2.);
#244=CIRCLE('',#711,2.);
#245=CIRCLE('',#714,2.);
#246=CIRCLE('',#715,2.);
#247=CIRCLE('',#717,2.);
#248=CIRCLE('',#719,2.);
#249=CIRCLE('',#723,10.);
#250=CIRCLE('',#724,10.);
#251=CIRCLE('',#725,10.);
#252=CIRCLE('',#726,10.);
#253=CIRCLE('',#727,2.85);
#254=CIRCLE('',#728,2.95);
#255=CIRCLE('',#729,2.95);
#256=CIRCLE('',#730,2.85000000000001);
#257=CIRCLE('',#732,2.85);
#258=CIRCLE('',#734,2.95);
#259=CIRCLE('',#736,2.95);
#260=CIRCLE('',#738,2.85000000000001);
#261=CIRCLE('',#740,1.55);
#262=CIRCLE('',#742,1.55);
#263=CIRCLE('',#744,1.55);
#264=CIRCLE('',#746,1.55);
#265=CIRCLE('',#748,1.55);
#266=CIRCLE('',#750,1.55);
#267=CIRCLE('',#751,1.55);
#268=CIRCLE('',#753,1.55);
#269=CIRCLE('',#755,10.);
#270=CIRCLE('',#759,10.);
#271=CIRCLE('',#762,10.);
#272=CIRCLE('',#764,10.);
#273=VERTEX_POINT('',#966);
#274=VERTEX_POINT('',#967);
#275=VERTEX_POINT('',#969);
#276=VERTEX_POINT('',#971);
#277=VERTEX_POINT('',#975);
#278=VERTEX_POINT('',#977);
#279=VERTEX_POINT('',#979);
#280=VERTEX_POINT('',#983);
#281=VERTEX_POINT('',#984);
#282=VERTEX_POINT('',#986);
#283=VERTEX_POINT('',#988);
#284=VERTEX_POINT('',#992);
#285=VERTEX_POINT('',#994);
#286=VERTEX_POINT('',#996);
#287=VERTEX_POINT('',#1000);
#288=VERTEX_POINT('',#1002);
#289=VERTEX_POINT('',#1004);
#290=VERTEX_POINT('',#1006);
#291=VERTEX_POINT('',#1008);
#292=VERTEX_POINT('',#1011);
#293=VERTEX_POINT('',#1015);
#294=VERTEX_POINT('',#1019);
#295=VERTEX_POINT('',#1028);
#296=VERTEX_POINT('',#1030);
#297=VERTEX_POINT('',#1032);
#298=VERTEX_POINT('',#1034);
#299=VERTEX_POINT('',#1036);
#300=VERTEX_POINT('',#1038);
#301=VERTEX_POINT('',#1041);
#302=VERTEX_POINT('',#1043);
#303=VERTEX_POINT('',#1045);
#304=VERTEX_POINT('',#1047);
#305=VERTEX_POINT('',#1050);
#306=VERTEX_POINT('',#1054);
#307=VERTEX_POINT('',#1058);
#308=VERTEX_POINT('',#1062);
#309=VERTEX_POINT('',#1066);
#310=VERTEX_POINT('',#1069);
#311=VERTEX_POINT('',#1072);
#312=VERTEX_POINT('',#1075);
#313=VERTEX_POINT('',#1079);
#314=VERTEX_POINT('',#1083);
#315=VERTEX_POINT('',#1085);
#316=VERTEX_POINT('',#1089);
#317=VERTEX_POINT('',#1093);
#318=VERTEX_POINT('',#1094);
#319=VERTEX_POINT('',#1099);
#320=VERTEX_POINT('',#1104);
#321=VERTEX_POINT('',#1108);
#322=VERTEX_POINT('',#1114);
#323=VERTEX_POINT('',#1120);
#324=VERTEX_POINT('',#1121);
#325=VERTEX_POINT('',#1123);
#326=VERTEX_POINT('',#1126);
#327=VERTEX_POINT('',#1130);
#328=VERTEX_POINT('',#1132);
#329=VERTEX_POINT('',#1136);
#330=VERTEX_POINT('',#1140);
#331=EDGE_CURVE('',#273,#274,#241,.T.);
#332=EDGE_CURVE('',#274,#275,#129,.T.);
#333=EDGE_CURVE('',#275,#276,#242,.T.);
#334=EDGE_CURVE('',#276,#273,#130,.T.);
#335=EDGE_CURVE('',#277,#274,#131,.T.);
#336=EDGE_CURVE('',#278,#277,#132,.T.);
#337=EDGE_CURVE('',#278,#279,#133,.T.);
#338=EDGE_CURVE('',#275,#279,#134,.T.);
#339=EDGE_CURVE('',#280,#281,#243,.T.);
#340=EDGE_CURVE('',#281,#282,#135,.T.);
#341=EDGE_CURVE('',#282,#283,#244,.F.);
#342=EDGE_CURVE('',#283,#280,#136,.T.);
#343=EDGE_CURVE('',#284,#281,#137,.T.);
#344=EDGE_CURVE('',#285,#284,#138,.T.);
#345=EDGE_CURVE('',#286,#285,#139,.T.);
#346=EDGE_CURVE('',#286,#282,#140,.T.);
#347=EDGE_CURVE('',#287,#280,#141,.T.);
#348=EDGE_CURVE('',#288,#287,#142,.T.);
#349=EDGE_CURVE('',#289,#288,#143,.T.);
#350=EDGE_CURVE('',#290,#289,#144,.T.);
#351=EDGE_CURVE('',#291,#290,#145,.T.);
#352=EDGE_CURVE('',#277,#291,#245,.T.);
#353=EDGE_CURVE('',#273,#292,#146,.T.);
#354=EDGE_CURVE('',#284,#292,#246,.T.);
#355=EDGE_CURVE('',#291,#293,#147,.T.);
#356=EDGE_CURVE('',#293,#278,#247,.F.);
#357=EDGE_CURVE('',#292,#294,#148,.T.);
#358=EDGE_CURVE('',#294,#285,#248,.T.);
#359=EDGE_CURVE('',#294,#276,#149,.T.);
#360=EDGE_CURVE('',#286,#279,#150,.T.);
#361=EDGE_CURVE('',#283,#293,#151,.T.);
#362=EDGE_CURVE('',#290,#295,#249,.T.);
#363=EDGE_CURVE('',#295,#296,#152,.T.);
#364=EDGE_CURVE('',#296,#297,#250,.T.);
#365=EDGE_CURVE('',#297,#298,#153,.T.);
#366=EDGE_CURVE('',#298,#299,#251,.T.);
#367=EDGE_CURVE('',#299,#300,#154,.T.);
#368=EDGE_CURVE('',#300,#287,#252,.T.);
#369=EDGE_CURVE('',#301,#301,#253,.T.);
#370=EDGE_CURVE('',#302,#302,#254,.T.);
#371=EDGE_CURVE('',#303,#303,#255,.T.);
#372=EDGE_CURVE('',#304,#304,#256,.T.);
#373=EDGE_CURVE('',#301,#305,#155,.T.);
#374=EDGE_CURVE('',#305,#305,#257,.T.);
#375=EDGE_CURVE('',#302,#306,#156,.T.);
#376=EDGE_CURVE('',#306,#306,#258,.T.);
#377=EDGE_CURVE('',#303,#307,#157,.T.);
#378=EDGE_CURVE('',#307,#307,#259,.T.);
#379=EDGE_CURVE('',#304,#308,#158,.T.);
#380=EDGE_CURVE('',#308,#308,#260,.T.);
#381=EDGE_CURVE('',#309,#309,#261,.T.);
#382=EDGE_CURVE('',#310,#310,#262,.T.);
#383=EDGE_CURVE('',#311,#311,#263,.T.);
#384=EDGE_CURVE('',#309,#312,#159,.T.);
#385=EDGE_CURVE('',#312,#312,#264,.T.);
#386=EDGE_CURVE('',#311,#313,#160,.T.);
#387=EDGE_CURVE('',#313,#313,#265,.T.);
#388=EDGE_CURVE('',#314,#314,#266,.T.);
#389=EDGE_CURVE('',#314,#315,#161,.T.);
#390=EDGE_CURVE('',#315,#315,#267,.T.);
#391=EDGE_CURVE('',#310,#316,#162,.T.);
#392=EDGE_CURVE('',#316,#316,#268,.T.);
#393=EDGE_CURVE('',#317,#318,#269,.T.);
#394=EDGE_CURVE('',#318,#299,#163,.T.);
#395=EDGE_CURVE('',#298,#317,#164,.T.);
#396=EDGE_CURVE('',#319,#297,#165,.T.);
#397=EDGE_CURVE('',#317,#319,#166,.T.);
#398=EDGE_CURVE('',#296,#320,#167,.T.);
#399=EDGE_CURVE('',#320,#319,#270,.T.);
#400=EDGE_CURVE('',#321,#295,#168,.T.);
#401=EDGE_CURVE('',#320,#321,#169,.T.);
#402=EDGE_CURVE('',#289,#321,#271,.T.);
#403=EDGE_CURVE('',#322,#288,#272,.T.);
#404=EDGE_CURVE('',#300,#322,#170,.T.);
#405=EDGE_CURVE('',#322,#318,#171,.T.);
#406=EDGE_CURVE('',#323,#324,#172,.T.);
#407=EDGE_CURVE('',#325,#323,#173,.T.);
#408=EDGE_CURVE('',#279,#325,#174,.T.);
#409=EDGE_CURVE('',#326,#286,#175,.T.);
#410=EDGE_CURVE('',#324,#326,#176,.T.);
#411=EDGE_CURVE('',#324,#327,#177,.T.);
#412=EDGE_CURVE('',#328,#327,#178,.T.);
#413=EDGE_CURVE('',#323,#328,#179,.T.);
#414=EDGE_CURVE('',#329,#328,#180,.T.);
#415=EDGE_CURVE('',#325,#329,#181,.T.);
#416=EDGE_CURVE('',#330,#329,#182,.T.);
#417=EDGE_CURVE('',#326,#330,#183,.T.);
#418=EDGE_CURVE('',#327,#330,#184,.T.);
#419=ORIENTED_EDGE('',*,*,#331,.T.);
#420=ORIENTED_EDGE('',*,*,#332,.T.);
#421=ORIENTED_EDGE('',*,*,#333,.T.);
#422=ORIENTED_EDGE('',*,*,#334,.T.);
#423=ORIENTED_EDGE('',*,*,#332,.F.);
#424=ORIENTED_EDGE('',*,*,#335,.F.);
#425=ORIENTED_EDGE('',*,*,#336,.F.);
#426=ORIENTED_EDGE('',*,*,#337,.T.);
#427=ORIENTED_EDGE('',*,*,#338,.F.);
#428=ORIENTED_EDGE('',*,*,#339,.T.);
#429=ORIENTED_EDGE('',*,*,#340,.T.);
#430=ORIENTED_EDGE('',*,*,#341,.T.);
#431=ORIENTED_EDGE('',*,*,#342,.T.);
#432=ORIENTED_EDGE('',*,*,#340,.F.);
#433=ORIENTED_EDGE('',*,*,#343,.F.);
#434=ORIENTED_EDGE('',*,*,#344,.F.);
#435=ORIENTED_EDGE('',*,*,#345,.F.);
#436=ORIENTED_EDGE('',*,*,#346,.T.);
#437=ORIENTED_EDGE('',*,*,#339,.F.);
#438=ORIENTED_EDGE('',*,*,#347,.F.);
#439=ORIENTED_EDGE('',*,*,#348,.F.);
#440=ORIENTED_EDGE('',*,*,#349,.F.);
#441=ORIENTED_EDGE('',*,*,#350,.F.);
#442=ORIENTED_EDGE('',*,*,#351,.F.);
#443=ORIENTED_EDGE('',*,*,#352,.F.);
#444=ORIENTED_EDGE('',*,*,#335,.T.);
#445=ORIENTED_EDGE('',*,*,#331,.F.);
#446=ORIENTED_EDGE('',*,*,#353,.T.);
#447=ORIENTED_EDGE('',*,*,#354,.F.);
#448=ORIENTED_EDGE('',*,*,#343,.T.);
#449=ORIENTED_EDGE('',*,*,#352,.T.);
#450=ORIENTED_EDGE('',*,*,#355,.T.);
#451=ORIENTED_EDGE('',*,*,#356,.T.);
#452=ORIENTED_EDGE('',*,*,#336,.T.);
#453=ORIENTED_EDGE('',*,*,#354,.T.);
#454=ORIENTED_EDGE('',*,*,#357,.T.);
#455=ORIENTED_EDGE('',*,*,#358,.T.);
#456=ORIENTED_EDGE('',*,*,#344,.T.);
#457=ORIENTED_EDGE('',*,*,#334,.F.);
#458=ORIENTED_EDGE('',*,*,#359,.F.);
#459=ORIENTED_EDGE('',*,*,#357,.F.);
#460=ORIENTED_EDGE('',*,*,#353,.F.);
#461=ORIENTED_EDGE('',*,*,#360,.T.);
#462=ORIENTED_EDGE('',*,*,#337,.F.);
#463=ORIENTED_EDGE('',*,*,#356,.F.);
#464=ORIENTED_EDGE('',*,*,#361,.F.);
#465=ORIENTED_EDGE('',*,*,#341,.F.);
#466=ORIENTED_EDGE('',*,*,#346,.F.);
#467=ORIENTED_EDGE('',*,*,#361,.T.);
#468=ORIENTED_EDGE('',*,*,#355,.F.);
#469=ORIENTED_EDGE('',*,*,#351,.T.);
#470=ORIENTED_EDGE('',*,*,#362,.T.);
#471=ORIENTED_EDGE('',*,*,#363,.T.);
#472=ORIENTED_EDGE('',*,*,#364,.T.);
#473=ORIENTED_EDGE('',*,*,#365,.T.);
#474=ORIENTED_EDGE('',*,*,#366,.T.);
#475=ORIENTED_EDGE('',*,*,#367,.T.);
#476=ORIENTED_EDGE('',*,*,#368,.T.);
#477=ORIENTED_EDGE('',*,*,#347,.T.);
#478=ORIENTED_EDGE('',*,*,#342,.F.);
#479=ORIENTED_EDGE('',*,*,#369,.T.);
#480=ORIENTED_EDGE('',*,*,#370,.T.);
#481=ORIENTED_EDGE('',*,*,#371,.T.);
#482=ORIENTED_EDGE('',*,*,#372,.T.);
#483=ORIENTED_EDGE('',*,*,#369,.F.);
#484=ORIENTED_EDGE('',*,*,#373,.T.);
#485=ORIENTED_EDGE('',*,*,#374,.F.);
#486=ORIENTED_EDGE('',*,*,#373,.F.);
#487=ORIENTED_EDGE('',*,*,#370,.F.);
#488=ORIENTED_EDGE('',*,*,#375,.T.);
#489=ORIENTED_EDGE('',*,*,#376,.F.);
#490=ORIENTED_EDGE('',*,*,#375,.F.);
#491=ORIENTED_EDGE('',*,*,#371,.F.);
#492=ORIENTED_EDGE('',*,*,#377,.T.);
#493=ORIENTED_EDGE('',*,*,#378,.F.);
#494=ORIENTED_EDGE('',*,*,#377,.F.);
#495=ORIENTED_EDGE('',*,*,#372,.F.);
#496=ORIENTED_EDGE('',*,*,#379,.T.);
#497=ORIENTED_EDGE('',*,*,#380,.F.);
#498=ORIENTED_EDGE('',*,*,#379,.F.);
#499=ORIENTED_EDGE('',*,*,#380,.T.);
#500=ORIENTED_EDGE('',*,*,#381,.T.);
#501=ORIENTED_EDGE('',*,*,#378,.T.);
#502=ORIENTED_EDGE('',*,*,#382,.T.);
#503=ORIENTED_EDGE('',*,*,#376,.T.);
#504=ORIENTED_EDGE('',*,*,#383,.T.);
#505=ORIENTED_EDGE('',*,*,#381,.F.);
#506=ORIENTED_EDGE('',*,*,#384,.T.);
#507=ORIENTED_EDGE('',*,*,#385,.F.);
#508=ORIENTED_EDGE('',*,*,#384,.F.);
#509=ORIENTED_EDGE('',*,*,#383,.F.);
#510=ORIENTED_EDGE('',*,*,#386,.T.);
#511=ORIENTED_EDGE('',*,*,#387,.F.);
#512=ORIENTED_EDGE('',*,*,#386,.F.);
#513=ORIENTED_EDGE('',*,*,#388,.F.);
#514=ORIENTED_EDGE('',*,*,#389,.T.);
#515=ORIENTED_EDGE('',*,*,#390,.F.);
#516=ORIENTED_EDGE('',*,*,#389,.F.);
#517=ORIENTED_EDGE('',*,*,#382,.F.);
#518=ORIENTED_EDGE('',*,*,#391,.T.);
#519=ORIENTED_EDGE('',*,*,#392,.F.);
#520=ORIENTED_EDGE('',*,*,#391,.F.);
#521=ORIENTED_EDGE('',*,*,#393,.T.);
#522=ORIENTED_EDGE('',*,*,#394,.T.);
#523=ORIENTED_EDGE('',*,*,#366,.F.);
#524=ORIENTED_EDGE('',*,*,#395,.T.);
#525=ORIENTED_EDGE('',*,*,#395,.F.);
#526=ORIENTED_EDGE('',*,*,#365,.F.);
#527=ORIENTED_EDGE('',*,*,#396,.F.);
#528=ORIENTED_EDGE('',*,*,#397,.F.);
#529=ORIENTED_EDGE('',*,*,#374,.T.);
#530=ORIENTED_EDGE('',*,*,#388,.T.);
#531=ORIENTED_EDGE('',*,*,#398,.T.);
#532=ORIENTED_EDGE('',*,*,#399,.T.);
#533=ORIENTED_EDGE('',*,*,#396,.T.);
#534=ORIENTED_EDGE('',*,*,#364,.F.);
#535=ORIENTED_EDGE('',*,*,#398,.F.);
#536=ORIENTED_EDGE('',*,*,#363,.F.);
#537=ORIENTED_EDGE('',*,*,#400,.F.);
#538=ORIENTED_EDGE('',*,*,#401,.F.);
#539=ORIENTED_EDGE('',*,*,#402,.T.);
#540=ORIENTED_EDGE('',*,*,#400,.T.);
#541=ORIENTED_EDGE('',*,*,#362,.F.);
#542=ORIENTED_EDGE('',*,*,#350,.T.);
#543=ORIENTED_EDGE('',*,*,#403,.T.);
#544=ORIENTED_EDGE('',*,*,#348,.T.);
#545=ORIENTED_EDGE('',*,*,#368,.F.);
#546=ORIENTED_EDGE('',*,*,#404,.T.);
#547=ORIENTED_EDGE('',*,*,#394,.F.);
#548=ORIENTED_EDGE('',*,*,#405,.F.);
#549=ORIENTED_EDGE('',*,*,#404,.F.);
#550=ORIENTED_EDGE('',*,*,#367,.F.);
#551=ORIENTED_EDGE('',*,*,#406,.F.);
#552=ORIENTED_EDGE('',*,*,#407,.F.);
#553=ORIENTED_EDGE('',*,*,#408,.F.);
#554=ORIENTED_EDGE('',*,*,#360,.F.);
#555=ORIENTED_EDGE('',*,*,#409,.F.);
#556=ORIENTED_EDGE('',*,*,#410,.F.);
#557=ORIENTED_EDGE('',*,*,#406,.T.);
#558=ORIENTED_EDGE('',*,*,#411,.T.);
#559=ORIENTED_EDGE('',*,*,#412,.F.);
#560=ORIENTED_EDGE('',*,*,#413,.F.);
#561=ORIENTED_EDGE('',*,*,#407,.T.);
#562=ORIENTED_EDGE('',*,*,#413,.T.);
#563=ORIENTED_EDGE('',*,*,#414,.F.);
#564=ORIENTED_EDGE('',*,*,#415,.F.);
#565=ORIENTED_EDGE('',*,*,#338,.T.);
#566=ORIENTED_EDGE('',*,*,#408,.T.);
#567=ORIENTED_EDGE('',*,*,#415,.T.);
#568=ORIENTED_EDGE('',*,*,#416,.F.);
#569=ORIENTED_EDGE('',*,*,#417,.F.);
#570=ORIENTED_EDGE('',*,*,#409,.T.);
#571=ORIENTED_EDGE('',*,*,#345,.T.);
#572=ORIENTED_EDGE('',*,*,#358,.F.);
#573=ORIENTED_EDGE('',*,*,#359,.T.);
#574=ORIENTED_EDGE('',*,*,#333,.F.);
#575=ORIENTED_EDGE('',*,*,#410,.T.);
#576=ORIENTED_EDGE('',*,*,#417,.T.);
#577=ORIENTED_EDGE('',*,*,#418,.F.);
#578=ORIENTED_EDGE('',*,*,#411,.F.);
#579=ORIENTED_EDGE('',*,*,#393,.F.);
#580=ORIENTED_EDGE('',*,*,#397,.T.);
#581=ORIENTED_EDGE('',*,*,#399,.F.);
#582=ORIENTED_EDGE('',*,*,#401,.T.);
#583=ORIENTED_EDGE('',*,*,#402,.F.);
#584=ORIENTED_EDGE('',*,*,#349,.T.);
#585=ORIENTED_EDGE('',*,*,#403,.F.);
#586=ORIENTED_EDGE('',*,*,#405,.T.);
#587=ORIENTED_EDGE('',*,*,#385,.T.);
#588=ORIENTED_EDGE('',*,*,#387,.T.);
#589=ORIENTED_EDGE('',*,*,#390,.T.);
#590=ORIENTED_EDGE('',*,*,#392,.T.);
#591=ORIENTED_EDGE('',*,*,#418,.T.);
#592=ORIENTED_EDGE('',*,*,#416,.T.);
#593=ORIENTED_EDGE('',*,*,#414,.T.);
#594=ORIENTED_EDGE('',*,*,#412,.T.);
#595=CYLINDRICAL_SURFACE('',#705,2.);
#596=CYLINDRICAL_SURFACE('',#709,2.);
#597=CYLINDRICAL_SURFACE('',#716,2.);
#598=CYLINDRICAL_SURFACE('',#718,2.);
#599=CYLINDRICAL_SURFACE('',#731,2.85);
#600=CYLINDRICAL_SURFACE('',#733,2.95);
#601=CYLINDRICAL_SURFACE('',#735,2.95);
#602=CYLINDRICAL_SURFACE('',#737,2.85000000000001);
#603=CYLINDRICAL_SURFACE('',#745,1.55);
#604=CYLINDRICAL_SURFACE('',#747,1.55);
#605=CYLINDRICAL_SURFACE('',#749,1.55);
#606=CYLINDRICAL_SURFACE('',#752,1.55);
#607=CYLINDRICAL_SURFACE('',#754,10.);
#608=CYLINDRICAL_SURFACE('',#758,10.);
#609=CYLINDRICAL_SURFACE('',#761,10.);
#610=CYLINDRICAL_SURFACE('',#763,10.);
#611=STYLED_ITEM('',(#1167),#647);
#612=STYLED_ITEM('',(#1167),#648);
#613=STYLED_ITEM('',(#1167),#649);
#614=STYLED_ITEM('',(#1167),#650);
#615=STYLED_ITEM('',(#1167),#651);
#616=STYLED_ITEM('',(#1167),#652);
#617=STYLED_ITEM('',(#1167),#653);
#618=STYLED_ITEM('',(#1167),#654);
#619=STYLED_ITEM('',(#1167),#655);
#620=STYLED_ITEM('',(#1167),#656);
#621=STYLED_ITEM('',(#1167),#657);
#622=STYLED_ITEM('',(#1168),#658);
#623=STYLED_ITEM('',(#1167),#659);
#624=STYLED_ITEM('',(#1168),#660);
#625=STYLED_ITEM('',(#1168),#661);
#626=STYLED_ITEM('',(#1167),#662);
#627=STYLED_ITEM('',(#1168),#663);
#628=STYLED_ITEM('',(#1167),#664);
#629=STYLED_ITEM('',(#1168),#665);
#630=STYLED_ITEM('',(#1167),#666);
#631=STYLED_ITEM('',(#1167),#667);
#632=STYLED_ITEM('',(#1168),#668);
#633=STYLED_ITEM('',(#1167),#669);
#634=STYLED_ITEM('',(#1167),#670);
#635=STYLED_ITEM('',(#1167),#671);
#636=STYLED_ITEM('',(#1167),#672);
#637=STYLED_ITEM('',(#1167),#673);
#638=STYLED_ITEM('',(#1167),#674);
#639=STYLED_ITEM('',(#1167),#675);
#640=STYLED_ITEM('',(#1167),#676);
#641=STYLED_ITEM('',(#1167),#677);
#642=STYLED_ITEM('',(#1167),#678);
#643=STYLED_ITEM('',(#1167),#679);
#644=STYLED_ITEM('',(#1167),#680);
#645=STYLED_ITEM('',(#1167),#681);
#646=STYLED_ITEM('',(#1166),#13);
#647=ADVANCED_FACE('',(#46),#595,.F.);
#648=ADVANCED_FACE('',(#47),#27,.F.);
#649=ADVANCED_FACE('',(#48),#596,.T.);
#650=ADVANCED_FACE('',(#49),#28,.F.);
#651=ADVANCED_FACE('',(#50),#29,.T.);
#652=ADVANCED_FACE('',(#51),#597,.T.);
#653=ADVANCED_FACE('',(#52),#598,.F.);
#654=ADVANCED_FACE('',(#53),#30,.F.);
#655=ADVANCED_FACE('',(#54),#31,.F.);
#656=ADVANCED_FACE('',(#55,#14,#15,#16,#17),#32,.T.);
#657=ADVANCED_FACE('',(#56),#599,.F.);
#658=ADVANCED_FACE('',(#57),#600,.F.);
#659=ADVANCED_FACE('',(#58),#601,.F.);
#660=ADVANCED_FACE('',(#59),#602,.F.);
#661=ADVANCED_FACE('',(#60,#18),#33,.T.);
#662=ADVANCED_FACE('',(#61,#19),#34,.T.);
#663=ADVANCED_FACE('',(#62,#20),#35,.T.);
#664=ADVANCED_FACE('',(#63),#603,.F.);
#665=ADVANCED_FACE('',(#64),#604,.F.);
#666=ADVANCED_FACE('',(#65),#605,.F.);
#667=ADVANCED_FACE('',(#66),#606,.F.);
#668=ADVANCED_FACE('',(#67),#607,.T.);
#669=ADVANCED_FACE('',(#68),#36,.T.);
#670=ADVANCED_FACE('',(#69,#21),#37,.T.);
#671=ADVANCED_FACE('',(#70),#608,.T.);
#672=ADVANCED_FACE('',(#71),#38,.T.);
#673=ADVANCED_FACE('',(#72),#609,.T.);
#674=ADVANCED_FACE('',(#73),#610,.T.);
#675=ADVANCED_FACE('',(#74),#39,.T.);
#676=ADVANCED_FACE('',(#75),#40,.F.);
#677=ADVANCED_FACE('',(#76),#41,.T.);
#678=ADVANCED_FACE('',(#77),#42,.T.);
#679=ADVANCED_FACE('',(#78),#43,.T.);
#680=ADVANCED_FACE('',(#79),#44,.T.);
#681=ADVANCED_FACE('',(#80,#22,#23,#24,#25,#26),#45,.T.);
#682=CLOSED_SHELL('',(#647,#648,#649,#650,#651,#652,#653,#654,#655,#656,
#657,#658,#659,#660,#661,#662,#663,#664,#665,#666,#667,#668,#669,#670,#671,
#672,#673,#674,#675,#676,#677,#678,#679,#680,#681));
#683=DERIVED_UNIT_ELEMENT(#686,1.);
#684=DERIVED_UNIT_ELEMENT(#1151,-3.);
#685=DIMENSIONAL_EXPONENTS(0.,1.,0.,0.,0.,0.,0.);
#686=(
CONVERSION_BASED_UNIT('gram',#688)
MASS_UNIT()
NAMED_UNIT(#685)
);
#687=(
MASS_UNIT()
NAMED_UNIT(*)
SI_UNIT(.KILO.,.GRAM.)
);
#688=MASS_MEASURE_WITH_UNIT(MASS_MEASURE(0.001),#687);
#689=DERIVED_UNIT((#683,#684));
#690=MEASURE_REPRESENTATION_ITEM('density measure',
POSITIVE_RATIO_MEASURE(1.),#689);
#691=PROPERTY_DEFINITION_REPRESENTATION(#696,#693);
#692=PROPERTY_DEFINITION_REPRESENTATION(#697,#694);
#693=REPRESENTATION('material name',(#695),#1148);
#694=REPRESENTATION('density',(#690),#1148);
#695=DESCRIPTIVE_REPRESENTATION_ITEM('Generic','Generic');
#696=PROPERTY_DEFINITION('material property','material name',#1158);
#697=PROPERTY_DEFINITION('material property','density of part',#1158);
#698=DATE_TIME_ROLE('creation_date');
#699=APPLIED_DATE_AND_TIME_ASSIGNMENT(#700,#698,(#1158));
#700=DATE_AND_TIME(#701,#702);
#701=CALENDAR_DATE(2026,15,2);
#702=LOCAL_TIME(0,0,0.,#703);
#703=COORDINATED_UNIVERSAL_TIME_OFFSET(0,0,.BEHIND.);
#704=AXIS2_PLACEMENT_3D('',#964,#772,#773);
#705=AXIS2_PLACEMENT_3D('',#965,#774,#775);
#706=AXIS2_PLACEMENT_3D('',#968,#776,#777);
#707=AXIS2_PLACEMENT_3D('',#972,#779,#780);
#708=AXIS2_PLACEMENT_3D('',#974,#782,#783);
#709=AXIS2_PLACEMENT_3D('',#982,#788,#789);
#710=AXIS2_PLACEMENT_3D('',#985,#790,#791);
#711=AXIS2_PLACEMENT_3D('',#989,#793,#794);
#712=AXIS2_PLACEMENT_3D('',#991,#796,#797);
#713=AXIS2_PLACEMENT_3D('',#999,#802,#803);
#714=AXIS2_PLACEMENT_3D('',#1010,#809,#810);
#715=AXIS2_PLACEMENT_3D('',#1013,#812,#813);
#716=AXIS2_PLACEMENT_3D('',#1014,#814,#815);
#717=AXIS2_PLACEMENT_3D('',#1017,#817,#818);
#718=AXIS2_PLACEMENT_3D('',#1018,#819,#820);
#719=AXIS2_PLACEMENT_3D('',#1021,#822,#823);
#720=AXIS2_PLACEMENT_3D('',#1022,#824,#825);
#721=AXIS2_PLACEMENT_3D('',#1024,#827,#828);
#722=AXIS2_PLACEMENT_3D('',#1027,#831,#832);
#723=AXIS2_PLACEMENT_3D('',#1029,#833,#834);
#724=AXIS2_PLACEMENT_3D('',#1033,#836,#837);
#725=AXIS2_PLACEMENT_3D('',#1037,#839,#840);
#726=AXIS2_PLACEMENT_3D('',#1040,#842,#843);
#727=AXIS2_PLACEMENT_3D('',#1042,#844,#845);
#728=AXIS2_PLACEMENT_3D('',#1044,#846,#847);
#729=AXIS2_PLACEMENT_3D('',#1046,#848,#849);
#730=AXIS2_PLACEMENT_3D('',#1048,#850,#851);
#731=AXIS2_PLACEMENT_3D('',#1049,#852,#853);
#732=AXIS2_PLACEMENT_3D('',#1052,#855,#856);
#733=AXIS2_PLACEMENT_3D('',#1053,#857,#858);
#734=AXIS2_PLACEMENT_3D('',#1056,#860,#861);
#735=AXIS2_PLACEMENT_3D('',#1057,#862,#863);
#736=AXIS2_PLACEMENT_3D('',#1060,#865,#866);
#737=AXIS2_PLACEMENT_3D('',#1061,#867,#868);
#738=AXIS2_PLACEMENT_3D('',#1064,#870,#871);
#739=AXIS2_PLACEMENT_3D('',#1065,#872,#873);
#740=AXIS2_PLACEMENT_3D('',#1067,#874,#875);
#741=AXIS2_PLACEMENT_3D('',#1068,#876,#877);
#742=AXIS2_PLACEMENT_3D('',#1070,#878,#879);
#743=AXIS2_PLACEMENT_3D('',#1071,#880,#881);
#744=AXIS2_PLACEMENT_3D('',#1073,#882,#883);
#745=AXIS2_PLACEMENT_3D('',#1074,#884,#885);
#746=AXIS2_PLACEMENT_3D('',#1077,#887,#888);
#747=AXIS2_PLACEMENT_3D('',#1078,#889,#890);
#748=AXIS2_PLACEMENT_3D('',#1081,#892,#893);
#749=AXIS2_PLACEMENT_3D('',#1082,#894,#895);
#750=AXIS2_PLACEMENT_3D('',#1084,#896,#897);
#751=AXIS2_PLACEMENT_3D('',#1087,#899,#900);
#752=AXIS2_PLACEMENT_3D('',#1088,#901,#902);
#753=AXIS2_PLACEMENT_3D('',#1091,#904,#905);
#754=AXIS2_PLACEMENT_3D('',#1092,#906,#907);
#755=AXIS2_PLACEMENT_3D('',#1095,#908,#909);
#756=AXIS2_PLACEMENT_3D('',#1098,#912,#913);
#757=AXIS2_PLACEMENT_3D('',#1102,#916,#917);
#758=AXIS2_PLACEMENT_3D('',#1103,#918,#919);
#759=AXIS2_PLACEMENT_3D('',#1106,#921,#922);
#760=AXIS2_PLACEMENT_3D('',#1107,#923,#924);
#761=AXIS2_PLACEMENT_3D('',#1111,#927,#928);
#762=AXIS2_PLACEMENT_3D('',#1112,#929,#930);
#763=AXIS2_PLACEMENT_3D('',#1113,#931,#932);
#764=AXIS2_PLACEMENT_3D('',#1115,#933,#934);
#765=AXIS2_PLACEMENT_3D('',#1117,#936,#937);
#766=AXIS2_PLACEMENT_3D('',#1119,#939,#940);
#767=AXIS2_PLACEMENT_3D('',#1129,#946,#947);
#768=AXIS2_PLACEMENT_3D('',#1135,#951,#952);
#769=AXIS2_PLACEMENT_3D('',#1139,#955,#956);
#770=AXIS2_PLACEMENT_3D('',#1143,#959,#960);
#771=AXIS2_PLACEMENT_3D('',#1145,#962,#963);
#772=DIRECTION('axis',(0.,0.,1.));
#773=DIRECTION('refdir',(1.,0.,0.));
#774=DIRECTION('center_axis',(0.,0.,1.));
#775=DIRECTION('ref_axis',(0.707106781186548,0.707106781186547,0.));
#776=DIRECTION('center_axis',(-1.05234409917076E-16,0.,-1.));
#777=DIRECTION('ref_axis',(0.707106781186548,0.707106781186547,0.));
#778=DIRECTION('',(0.,0.,1.));
#779=DIRECTION('center_axis',(1.37915903680144E-16,0.,1.));
#780=DIRECTION('ref_axis',(0.707106781186548,0.707106781186547,0.));
#781=DIRECTION('',(0.,0.,-1.));
#782=DIRECTION('center_axis',(1.,0.,0.));
#783=DIRECTION('ref_axis',(0.,1.,0.));
#784=DIRECTION('',(0.,1.,0.));
#785=DIRECTION('',(0.,0.,-1.));
#786=DIRECTION('',(0.,1.,0.));
#787=DIRECTION('',(0.,-1.,0.));
#788=DIRECTION('center_axis',(0.,0.,1.));
#789=DIRECTION('ref_axis',(0.707106781186547,-0.707106781186548,0.));
#790=DIRECTION('center_axis',(1.05234409917076E-16,0.,1.));
#791=DIRECTION('ref_axis',(0.707106781186547,-0.707106781186548,0.));
#792=DIRECTION('',(0.,0.,1.));
#793=DIRECTION('center_axis',(0.,0.,1.));
#794=DIRECTION('ref_axis',(0.707106781186547,-0.707106781186548,0.));
#795=DIRECTION('',(0.,0.,-1.));
#796=DIRECTION('center_axis',(-1.,0.,0.));
#797=DIRECTION('ref_axis',(0.,-1.,0.));
#798=DIRECTION('',(0.,-1.,0.));
#799=DIRECTION('',(0.,0.,-1.));
#800=DIRECTION('',(0.,1.,0.));
#801=DIRECTION('',(0.,-1.,0.));
#802=DIRECTION('center_axis',(-1.05234409917076E-16,0.,-1.));
#803=DIRECTION('ref_axis',(-1.,0.,1.05234409917076E-16));
#804=DIRECTION('',(1.,0.,-1.37915903680144E-16));
#805=DIRECTION('',(0.,-1.,0.));
#806=DIRECTION('',(-1.,0.,1.05234409917076E-16));
#807=DIRECTION('',(0.,1.,0.));
#808=DIRECTION('',(1.,0.,-1.37915903680144E-16));
#809=DIRECTION('center_axis',(1.05234409917076E-16,0.,1.));
#810=DIRECTION('ref_axis',(-0.707106781186548,-0.707106781186547,0.));
#811=DIRECTION('',(-1.,-3.96508223080413E-17,1.05234409917076E-16));
#812=DIRECTION('center_axis',(-1.05234409917076E-16,0.,-1.));
#813=DIRECTION('ref_axis',(-0.707106781186548,0.707106781186547,0.));
#814=DIRECTION('center_axis',(0.,0.,-1.));
#815=DIRECTION('ref_axis',(-0.707106781186548,-0.707106781186547,0.));
#816=DIRECTION('',(0.,0.,1.));
#817=DIRECTION('center_axis',(0.,0.,1.));
#818=DIRECTION('ref_axis',(-0.707106781186548,-0.707106781186547,0.));
#819=DIRECTION('center_axis',(0.,0.,1.));
#820=DIRECTION('ref_axis',(-0.707106781186548,0.707106781186547,0.));
#821=DIRECTION('',(0.,0.,1.));
#822=DIRECTION('center_axis',(1.37915903680144E-16,0.,1.));
#823=DIRECTION('ref_axis',(-0.707106781186548,0.707106781186547,0.));
#824=DIRECTION('center_axis',(-3.96508223080413E-17,1.,0.));
#825=DIRECTION('ref_axis',(-1.,-3.96508223080413E-17,1.05234409917076E-16));
#826=DIRECTION('',(1.,3.96508223080413E-17,-1.37915903680144E-16));
#827=DIRECTION('center_axis',(0.,0.,1.));
#828=DIRECTION('ref_axis',(1.,0.,0.));
#829=DIRECTION('',(1.,0.,-1.37915903680144E-16));
#830=DIRECTION('',(1.,0.,0.));
#831=DIRECTION('center_axis',(0.,-1.,0.));
#832=DIRECTION('ref_axis',(0.,0.,-1.));
#833=DIRECTION('center_axis',(0.,-1.,0.));
#834=DIRECTION('ref_axis',(0.,0.,-1.));
#835=DIRECTION('',(1.40091233391187E-16,0.,1.));
#836=DIRECTION('center_axis',(0.,-1.,0.));
#837=DIRECTION('ref_axis',(1.,0.,1.66533453693773E-16));
#838=DIRECTION('',(-1.,0.,8.61974398000898E-17));
#839=DIRECTION('center_axis',(0.,-1.,0.));
#840=DIRECTION('ref_axis',(2.66240533483251E-17,0.,1.));
#841=DIRECTION('',(-7.00456166955935E-17,0.,-1.));
#842=DIRECTION('center_axis',(0.,-1.,0.));
#843=DIRECTION('ref_axis',(-1.,0.,0.));
#844=DIRECTION('center_axis',(0.,1.,0.));
#845=DIRECTION('ref_axis',(-1.,0.,0.));
#846=DIRECTION('center_axis',(0.,1.,0.));
#847=DIRECTION('ref_axis',(-1.,0.,0.));
#848=DIRECTION('center_axis',(0.,1.,0.));
#849=DIRECTION('ref_axis',(-1.,0.,0.));
#850=DIRECTION('center_axis',(0.,1.,0.));
#851=DIRECTION('ref_axis',(-1.,0.,0.));
#852=DIRECTION('center_axis',(0.,-1.,0.));
#853=DIRECTION('ref_axis',(-1.,0.,0.));
#854=DIRECTION('',(0.,1.,0.));
#855=DIRECTION('center_axis',(0.,-1.,0.));
#856=DIRECTION('ref_axis',(-1.,0.,0.));
#857=DIRECTION('center_axis',(0.,-1.,0.));
#858=DIRECTION('ref_axis',(-1.,0.,0.));
#859=DIRECTION('',(0.,1.,0.));
#860=DIRECTION('center_axis',(0.,-1.,0.));
#861=DIRECTION('ref_axis',(-1.,0.,0.));
#862=DIRECTION('center_axis',(0.,-1.,0.));
#863=DIRECTION('ref_axis',(-1.,0.,0.));
#864=DIRECTION('',(0.,1.,0.));
#865=DIRECTION('center_axis',(0.,-1.,0.));
#866=DIRECTION('ref_axis',(-1.,0.,0.));
#867=DIRECTION('center_axis',(0.,-1.,0.));
#868=DIRECTION('ref_axis',(-1.,0.,0.));
#869=DIRECTION('',(0.,1.,0.));
#870=DIRECTION('center_axis',(0.,-1.,0.));
#871=DIRECTION('ref_axis',(-1.,0.,0.));
#872=DIRECTION('center_axis',(0.,-1.,0.));
#873=DIRECTION('ref_axis',(0.,0.,-1.));
#874=DIRECTION('center_axis',(0.,1.,0.));
#875=DIRECTION('ref_axis',(1.,0.,0.));
#876=DIRECTION('center_axis',(0.,-1.,0.));
#877=DIRECTION('ref_axis',(0.,0.,-1.));
#878=DIRECTION('center_axis',(0.,1.,0.));
#879=DIRECTION('ref_axis',(1.,0.,0.));
#880=DIRECTION('center_axis',(0.,-1.,0.));
#881=DIRECTION('ref_axis',(0.,0.,-1.));
#882=DIRECTION('center_axis',(0.,1.,0.));
#883=DIRECTION('ref_axis',(1.,0.,0.));
#884=DIRECTION('center_axis',(0.,1.,0.));
#885=DIRECTION('ref_axis',(1.,0.,0.));
#886=DIRECTION('',(0.,1.,0.));
#887=DIRECTION('center_axis',(0.,-1.,0.));
#888=DIRECTION('ref_axis',(1.,0.,0.));
#889=DIRECTION('center_axis',(0.,1.,0.));
#890=DIRECTION('ref_axis',(1.,0.,0.));
#891=DIRECTION('',(0.,1.,0.));
#892=DIRECTION('center_axis',(0.,-1.,0.));
#893=DIRECTION('ref_axis',(1.,0.,0.));
#894=DIRECTION('center_axis',(0.,1.,0.));
#895=DIRECTION('ref_axis',(1.,0.,0.));
#896=DIRECTION('center_axis',(0.,1.,0.));
#897=DIRECTION('ref_axis',(1.,0.,0.));
#898=DIRECTION('',(0.,1.,0.));
#899=DIRECTION('center_axis',(0.,-1.,0.));
#900=DIRECTION('ref_axis',(1.,0.,0.));
#901=DIRECTION('center_axis',(0.,1.,0.));
#902=DIRECTION('ref_axis',(1.,0.,0.));
#903=DIRECTION('',(0.,1.,0.));
#904=DIRECTION('center_axis',(0.,-1.,0.));
#905=DIRECTION('ref_axis',(1.,0.,0.));
#906=DIRECTION('center_axis',(0.,1.,0.));
#907=DIRECTION('ref_axis',(-0.707106781186547,0.,0.707106781186547));
#908=DIRECTION('center_axis',(0.,-1.,0.));
#909=DIRECTION('ref_axis',(-0.707106781186547,0.,0.707106781186547));
#910=DIRECTION('',(0.,-1.,0.));
#911=DIRECTION('',(0.,1.,0.));
#912=DIRECTION('center_axis',(7.89258074378073E-17,0.,1.));
#913=DIRECTION('ref_axis',(1.,0.,-7.89258074378073E-17));
#914=DIRECTION('',(0.,-1.,0.));
#915=DIRECTION('',(1.,0.,-7.89258074378073E-17));
#916=DIRECTION('center_axis',(0.,-1.,0.));
#917=DIRECTION('ref_axis',(0.,0.,-1.));
#918=DIRECTION('center_axis',(0.,-1.,0.));
#919=DIRECTION('ref_axis',(0.707106781186548,0.,0.707106781186547));
#920=DIRECTION('',(0.,1.,0.));
#921=DIRECTION('center_axis',(0.,-1.,0.));
#922=DIRECTION('ref_axis',(0.707106781186548,0.,0.707106781186547));
#923=DIRECTION('center_axis',(1.,0.,-1.064962133933E-16));
#924=DIRECTION('ref_axis',(-1.064962133933E-16,0.,-1.));
#925=DIRECTION('',(0.,-1.,0.));
#926=DIRECTION('',(-1.064962133933E-16,0.,-1.));
#927=DIRECTION('center_axis',(0.,1.,0.));
#928=DIRECTION('ref_axis',(0.707106781186547,0.,-0.707106781186547));
#929=DIRECTION('center_axis',(0.,-1.,0.));
#930=DIRECTION('ref_axis',(0.707106781186547,0.,-0.707106781186547));
#931=DIRECTION('center_axis',(0.,1.,0.));
#932=DIRECTION('ref_axis',(-0.707106781186547,0.,-0.707106781186547));
#933=DIRECTION('center_axis',(0.,-1.,0.));
#934=DIRECTION('ref_axis',(-0.707106781186547,0.,-0.707106781186547));
#935=DIRECTION('',(0.,1.,0.));
#936=DIRECTION('center_axis',(-1.,0.,5.32481066966502E-17));
#937=DIRECTION('ref_axis',(5.32481066966502E-17,0.,1.));
#938=DIRECTION('',(5.32481066966502E-17,0.,1.));
#939=DIRECTION('center_axis',(0.,-1.,0.));
#940=DIRECTION('ref_axis',(0.,0.,-1.));
#941=DIRECTION('',(-1.,0.,-2.15493599500225E-18));
#942=DIRECTION('',(-1.40091233391187E-16,0.,1.));
#943=DIRECTION('',(1.,0.,-1.37915903680144E-16));
#944=DIRECTION('',(1.,0.,-1.37915903680144E-16));
#945=DIRECTION('',(-1.40091233391187E-16,0.,-1.));
#946=DIRECTION('center_axis',(2.15493599500225E-18,0.,-1.));
#947=DIRECTION('ref_axis',(-1.,0.,-2.15493599500225E-18));
#948=DIRECTION('',(0.,1.,0.));
#949=DIRECTION('',(-1.,0.,-2.15493599500225E-18));
#950=DIRECTION('',(0.,1.,0.));
#951=DIRECTION('center_axis',(-1.,0.,-1.40091233391187E-16));
#952=DIRECTION('ref_axis',(-1.40091233391187E-16,0.,1.));
#953=DIRECTION('',(-1.40091233391187E-16,0.,1.));
#954=DIRECTION('',(0.,1.,0.));
#955=DIRECTION('center_axis',(1.37915903680144E-16,0.,1.));
#956=DIRECTION('ref_axis',(1.,0.,-1.37915903680144E-16));
#957=DIRECTION('',(1.,0.,-1.37915903680144E-16));
#958=DIRECTION('',(0.,1.,0.));
#959=DIRECTION('center_axis',(1.,0.,-1.40091233391187E-16));
#960=DIRECTION('ref_axis',(-1.40091233391187E-16,0.,-1.));
#961=DIRECTION('',(-1.40091233391187E-16,0.,-1.));
#962=DIRECTION('center_axis',(0.,1.,0.));
#963=DIRECTION('ref_axis',(0.,0.,1.));
#964=CARTESIAN_POINT('',(0.,0.,0.));
#965=CARTESIAN_POINT('Origin',(27.2,5.5,-73.4));
#966=CARTESIAN_POINT('',(27.2,7.5,-73.4));
#967=CARTESIAN_POINT('',(29.2,5.5,-73.4));
#968=CARTESIAN_POINT('Origin',(27.2,5.5,-73.4));
#969=CARTESIAN_POINT('',(29.2,5.5,-63.4));
#970=CARTESIAN_POINT('',(29.2,5.5,-73.4));
#971=CARTESIAN_POINT('',(27.2,7.5,-63.4));
#972=CARTESIAN_POINT('Origin',(27.2,5.5,-63.4));
#973=CARTESIAN_POINT('',(27.2,7.5,-73.4));
#974=CARTESIAN_POINT('Origin',(29.2,-3.,-73.4));
#975=CARTESIAN_POINT('',(29.2,-1.,-73.4));
#976=CARTESIAN_POINT('',(29.2,-1.5,-73.4));
#977=CARTESIAN_POINT('',(29.2,-1.,-63.4));
#978=CARTESIAN_POINT('',(29.2,-1.,-52.55));
#979=CARTESIAN_POINT('',(29.2,0.,-63.4));
#980=CARTESIAN_POINT('',(29.2,7.5,-63.4));
#981=CARTESIAN_POINT('',(29.2,-1.5,-63.4));
#982=CARTESIAN_POINT('Origin',(13.2,-1.,-52.55));
#983=CARTESIAN_POINT('',(13.2,-3.,-73.4));
#984=CARTESIAN_POINT('',(15.2,-1.,-73.4));
#985=CARTESIAN_POINT('Origin',(13.2,-1.,-73.4));
#986=CARTESIAN_POINT('',(15.2,-1.,-63.4));
#987=CARTESIAN_POINT('',(15.2,-1.,-52.55));
#988=CARTESIAN_POINT('',(13.2,-3.,-63.4));
#989=CARTESIAN_POINT('Origin',(13.2,-1.,-63.4));
#990=CARTESIAN_POINT('',(13.2,-3.,-52.55));
#991=CARTESIAN_POINT('Origin',(15.2,7.5,-73.4));
#992=CARTESIAN_POINT('',(15.2,5.5,-73.4));
#993=CARTESIAN_POINT('',(15.2,3.75,-73.4));
#994=CARTESIAN_POINT('',(15.2,5.5,-63.4));
#995=CARTESIAN_POINT('',(15.2,5.5,-73.4));
#996=CARTESIAN_POINT('',(15.2,0.,-63.4));
#997=CARTESIAN_POINT('',(15.2,3.75,-63.4));
#998=CARTESIAN_POINT('',(15.2,1.5,-63.4));
#999=CARTESIAN_POINT('Origin',(74.4,0.,-73.4));
#1000=CARTESIAN_POINT('',(-4.44089209850063E-15,-3.,-73.4));
#1001=CARTESIAN_POINT('',(-4.44089209850063E-15,-3.,-73.4));
#1002=CARTESIAN_POINT('',(-8.88178419700125E-15,10.,-73.4));
#1003=CARTESIAN_POINT('',(-5.49323619767139E-15,0.,-73.4));
#1004=CARTESIAN_POINT('',(64.4,10.,-73.4));
#1005=CARTESIAN_POINT('',(74.4,10.,-73.4));
#1006=CARTESIAN_POINT('',(64.4,-3.,-73.4));
#1007=CARTESIAN_POINT('',(64.4,0.,-73.4));
#1008=CARTESIAN_POINT('',(31.2,-3.,-73.4));
#1009=CARTESIAN_POINT('',(-4.44089209850063E-15,-3.,-73.4));
#1010=CARTESIAN_POINT('Origin',(31.2,-1.,-73.4));
#1011=CARTESIAN_POINT('',(17.2,7.5,-73.4));
#1012=CARTESIAN_POINT('',(51.8,7.5,-73.4));
#1013=CARTESIAN_POINT('Origin',(17.2,5.5,-73.4));
#1014=CARTESIAN_POINT('Origin',(31.2,-1.,-52.55));
#1015=CARTESIAN_POINT('',(31.2,-3.,-63.4));
#1016=CARTESIAN_POINT('',(31.2,-3.,-52.55));
#1017=CARTESIAN_POINT('Origin',(31.2,-1.,-63.4));
#1018=CARTESIAN_POINT('Origin',(17.2,5.5,-73.4));
#1019=CARTESIAN_POINT('',(17.2,7.5,-63.4));
#1020=CARTESIAN_POINT('',(17.2,7.5,-73.4));
#1021=CARTESIAN_POINT('Origin',(17.2,5.5,-63.4));
#1022=CARTESIAN_POINT('Origin',(29.2,7.5,-73.4));
#1023=CARTESIAN_POINT('',(14.6,7.5,-63.4));
#1024=CARTESIAN_POINT('Origin',(22.2,4.5,-63.4));
#1025=CARTESIAN_POINT('',(-8.88178419700125E-15,0.,-63.4));
#1026=CARTESIAN_POINT('',(27.2,-3.,-63.4));
#1027=CARTESIAN_POINT('Origin',(32.2,-3.,-31.7));
#1028=CARTESIAN_POINT('',(74.4,-3.,-63.4));
#1029=CARTESIAN_POINT('Origin',(64.4,-3.,-63.4));
#1030=CARTESIAN_POINT('',(74.4,-3.,0.));
#1031=CARTESIAN_POINT('',(74.4,-3.,-63.4));
#1032=CARTESIAN_POINT('',(64.4,-3.,10.));
#1033=CARTESIAN_POINT('Origin',(64.4,-3.,-1.66533453693773E-15));
#1034=CARTESIAN_POINT('',(0.,-3.,10.));
#1035=CARTESIAN_POINT('',(64.4,-3.,10.));
#1036=CARTESIAN_POINT('',(-10.,-3.,4.44089209850063E-15));
#1037=CARTESIAN_POINT('Origin',(-2.66240533483251E-16,-3.,4.44089209850063E-15));
#1038=CARTESIAN_POINT('',(-10.,-3.,-63.4));
#1039=CARTESIAN_POINT('',(-10.,-3.,4.44089209850063E-15));
#1040=CARTESIAN_POINT('Origin',(-4.44089209850063E-15,-3.,-63.4));
#1041=CARTESIAN_POINT('',(-0.685533905932749,-3.,-66.9355339059487));
#1042=CARTESIAN_POINT('Origin',(-3.53553390593275,-3.,-66.9355339059487));
#1043=CARTESIAN_POINT('',(-0.585533905932736,-3.,3.53553390593274));
#1044=CARTESIAN_POINT('Origin',(-3.53553390593274,-3.,3.53553390593274));
#1045=CARTESIAN_POINT('',(70.8855339059313,-3.,3.53553390593273));
#1046=CARTESIAN_POINT('Origin',(67.9355339059313,-3.,3.53553390593273));
#1047=CARTESIAN_POINT('',(70.7855339059313,-3.,-66.9355339059167));
#1048=CARTESIAN_POINT('Origin',(67.9355339059313,-3.,-66.9355339059167));
#1049=CARTESIAN_POINT('Origin',(-3.53553390593275,-1.,-66.9355339059487));
#1050=CARTESIAN_POINT('',(-0.685533905932749,-1.,-66.9355339059487));
#1051=CARTESIAN_POINT('',(-0.685533905932749,-1.,-66.9355339059487));
#1052=CARTESIAN_POINT('Origin',(-3.53553390593275,-1.,-66.9355339059487));
#1053=CARTESIAN_POINT('Origin',(-3.53553390593274,-1.,3.53553390593274));
#1054=CARTESIAN_POINT('',(-0.585533905932736,-1.,3.53553390593274));
#1055=CARTESIAN_POINT('',(-0.585533905932736,-1.,3.53553390593274));
#1056=CARTESIAN_POINT('Origin',(-3.53553390593274,-1.,3.53553390593274));
#1057=CARTESIAN_POINT('Origin',(67.9355339059313,-1.,3.53553390593273));
#1058=CARTESIAN_POINT('',(70.8855339059313,-1.,3.53553390593273));
#1059=CARTESIAN_POINT('',(70.8855339059313,-1.,3.53553390593273));
#1060=CARTESIAN_POINT('Origin',(67.9355339059313,-1.,3.53553390593273));
#1061=CARTESIAN_POINT('Origin',(67.9355339059313,-1.,-66.9355339059167));
#1062=CARTESIAN_POINT('',(70.7855339059313,-1.,-66.9355339059167));
#1063=CARTESIAN_POINT('',(70.7855339059313,-1.,-66.9355339059167));
#1064=CARTESIAN_POINT('Origin',(67.9355339059313,-1.,-66.9355339059167));
#1065=CARTESIAN_POINT('Origin',(32.2,-1.,-31.7));
#1066=CARTESIAN_POINT('',(66.3855339059313,-1.,-66.9355339059167));
#1067=CARTESIAN_POINT('Origin',(67.9355339059313,-1.,-66.9355339059167));
#1068=CARTESIAN_POINT('Origin',(32.2,-1.,-31.7));
#1069=CARTESIAN_POINT('',(66.3855339059313,-1.,3.53553390593273));
#1070=CARTESIAN_POINT('Origin',(67.9355339059313,-1.,3.53553390593273));
#1071=CARTESIAN_POINT('Origin',(32.2,-1.,-31.7));
#1072=CARTESIAN_POINT('',(-5.08553390593274,-1.,3.53553390593274));
#1073=CARTESIAN_POINT('Origin',(-3.53553390593274,-1.,3.53553390593274));
#1074=CARTESIAN_POINT('Origin',(67.9355339059313,-1.,-66.9355339059167));
#1075=CARTESIAN_POINT('',(66.3855339059313,10.,-66.9355339059167));
#1076=CARTESIAN_POINT('',(66.3855339059313,-1.,-66.9355339059167));
#1077=CARTESIAN_POINT('Origin',(67.9355339059313,10.,-66.9355339059167));
#1078=CARTESIAN_POINT('Origin',(-3.53553390593274,-1.,3.53553390593274));
#1079=CARTESIAN_POINT('',(-5.08553390593274,10.,3.53553390593274));
#1080=CARTESIAN_POINT('',(-5.08553390593274,-1.,3.53553390593274));
#1081=CARTESIAN_POINT('Origin',(-3.53553390593274,10.,3.53553390593274));
#1082=CARTESIAN_POINT('Origin',(-3.53553390590075,-1.,-66.9355339059167));
#1083=CARTESIAN_POINT('',(-5.08553390590075,-1.,-66.9355339059167));
#1084=CARTESIAN_POINT('Origin',(-3.53553390590075,-1.,-66.9355339059167));
#1085=CARTESIAN_POINT('',(-5.08553390590075,10.,-66.9355339059167));
#1086=CARTESIAN_POINT('',(-5.08553390590075,-1.,-66.9355339059167));
#1087=CARTESIAN_POINT('Origin',(-3.53553390590075,10.,-66.9355339059167));
#1088=CARTESIAN_POINT('Origin',(67.9355339059313,-1.,3.53553390593273));
#1089=CARTESIAN_POINT('',(66.3855339059313,10.,3.53553390593273));
#1090=CARTESIAN_POINT('',(66.3855339059313,-1.,3.53553390593273));
#1091=CARTESIAN_POINT('Origin',(67.9355339059313,10.,3.53553390593273));
#1092=CARTESIAN_POINT('Origin',(-2.66240533483251E-16,0.,4.44089209850063E-15));
#1093=CARTESIAN_POINT('',(0.,10.,10.));
#1094=CARTESIAN_POINT('',(-10.,10.,8.88178419700125E-15));
#1095=CARTESIAN_POINT('Origin',(-2.66240533483251E-16,10.,4.44089209850063E-15));
#1096=CARTESIAN_POINT('',(-10.,0.,4.97337316546713E-15));
#1097=CARTESIAN_POINT('',(5.23017540894822E-16,0.,10.));
#1098=CARTESIAN_POINT('Origin',(-10.,0.,10.));
#1099=CARTESIAN_POINT('',(64.4,10.,10.));
#1100=CARTESIAN_POINT('',(64.4,0.,10.));
#1101=CARTESIAN_POINT('',(-10.,10.,10.));
#1102=CARTESIAN_POINT('Origin',(32.2,-1.,-31.7));
#1103=CARTESIAN_POINT('Origin',(64.4,0.,-1.66533453693773E-15));
#1104=CARTESIAN_POINT('',(74.4,10.,-2.22044604925031E-15));
#1105=CARTESIAN_POINT('',(74.4,0.,-2.73029667087074E-15));
#1106=CARTESIAN_POINT('Origin',(64.4,10.,-1.66533453693773E-15));
#1107=CARTESIAN_POINT('Origin',(74.4,0.,10.));
#1108=CARTESIAN_POINT('',(74.4,10.,-63.4));
#1109=CARTESIAN_POINT('',(74.4,0.,-63.4));
#1110=CARTESIAN_POINT('',(74.4,10.,10.));
#1111=CARTESIAN_POINT('Origin',(64.4,0.,-63.4));
#1112=CARTESIAN_POINT('Origin',(64.4,10.,-63.4));
#1113=CARTESIAN_POINT('Origin',(-4.44089209850063E-15,0.,-63.4));
#1114=CARTESIAN_POINT('',(-10.,10.,-63.4));
#1115=CARTESIAN_POINT('Origin',(-4.44089209850063E-15,10.,-63.4));
#1116=CARTESIAN_POINT('',(-10.,0.,-63.4));
#1117=CARTESIAN_POINT('Origin',(-10.,0.,-73.4));
#1118=CARTESIAN_POINT('',(-10.,10.,-73.4));
#1119=CARTESIAN_POINT('Origin',(32.2,0.,-31.7));
#1120=CARTESIAN_POINT('',(64.4,0.,1.38777878078145E-16));
#1121=CARTESIAN_POINT('',(0.,0.,0.));
#1122=CARTESIAN_POINT('',(64.4,0.,1.38777878078145E-16));
#1123=CARTESIAN_POINT('',(64.4,0.,-63.4));
#1124=CARTESIAN_POINT('',(64.4,0.,-63.4));
#1125=CARTESIAN_POINT('',(-8.88178419700125E-15,0.,-63.4));
#1126=CARTESIAN_POINT('',(-8.88178419700125E-15,0.,-63.4));
#1127=CARTESIAN_POINT('',(-8.88178419700125E-15,0.,-63.4));
#1128=CARTESIAN_POINT('',(0.,0.,0.));
#1129=CARTESIAN_POINT('Origin',(64.4,0.,1.38777878078145E-16));
#1130=CARTESIAN_POINT('',(0.,10.,0.));
#1131=CARTESIAN_POINT('',(0.,0.,0.));
#1132=CARTESIAN_POINT('',(64.4,10.,0.));
#1133=CARTESIAN_POINT('',(64.4,10.,1.38777878078145E-16));
#1134=CARTESIAN_POINT('',(64.4,0.,1.38777878078145E-16));
#1135=CARTESIAN_POINT('Origin',(64.4,0.,-63.4));
#1136=CARTESIAN_POINT('',(64.4,10.,-63.4));
#1137=CARTESIAN_POINT('',(64.4,10.,-63.4));
#1138=CARTESIAN_POINT('',(64.4,0.,-63.4));
#1139=CARTESIAN_POINT('Origin',(-8.88178419700125E-15,0.,-63.4));
#1140=CARTESIAN_POINT('',(-8.88178419700125E-15,10.,-63.4));
#1141=CARTESIAN_POINT('',(-8.88178419700125E-15,10.,-63.4));
#1142=CARTESIAN_POINT('',(-8.88178419700125E-15,0.,-63.4));
#1143=CARTESIAN_POINT('Origin',(0.,0.,0.));
#1144=CARTESIAN_POINT('',(0.,10.,0.));
#1145=CARTESIAN_POINT('Origin',(32.2,10.,-31.7));
#1146=UNCERTAINTY_MEASURE_WITH_UNIT(LENGTH_MEASURE(0.01),#1150,
'DISTANCE_ACCURACY_VALUE',
'Maximum model space distance between geometric entities at asserted c
onnectivities');
#1147=UNCERTAINTY_MEASURE_WITH_UNIT(LENGTH_MEASURE(0.01),#1150,
'DISTANCE_ACCURACY_VALUE',
'Maximum model space distance between geometric entities at asserted c
onnectivities');
#1148=(
GEOMETRIC_REPRESENTATION_CONTEXT(3)
GLOBAL_UNCERTAINTY_ASSIGNED_CONTEXT((#1146))
GLOBAL_UNIT_ASSIGNED_CONTEXT((#1150,#1152,#1153))
REPRESENTATION_CONTEXT('','3D')
);
#1149=(
GEOMETRIC_REPRESENTATION_CONTEXT(3)
GLOBAL_UNCERTAINTY_ASSIGNED_CONTEXT((#1147))
GLOBAL_UNIT_ASSIGNED_CONTEXT((#1150,#1152,#1153))
REPRESENTATION_CONTEXT('','3D')
);
#1150=(
LENGTH_UNIT()
NAMED_UNIT(*)
SI_UNIT(.MILLI.,.METRE.)
);
#1151=(
LENGTH_UNIT()
NAMED_UNIT(*)
SI_UNIT(.CENTI.,.METRE.)
);
#1152=(
NAMED_UNIT(*)
PLANE_ANGLE_UNIT()
SI_UNIT($,.RADIAN.)
);
#1153=(
NAMED_UNIT(*)
SI_UNIT($,.STERADIAN.)
SOLID_ANGLE_UNIT()
);
#1154=SHAPE_DEFINITION_REPRESENTATION(#1155,#1156);
#1155=PRODUCT_DEFINITION_SHAPE('',$,#1158);
#1156=SHAPE_REPRESENTATION('',(#704),#1148);
#1157=PRODUCT_DEFINITION_CONTEXT('part definition',#1162,'design');
#1158=PRODUCT_DEFINITION('Base','Base',#1159,#1157);
#1159=PRODUCT_DEFINITION_FORMATION('',$,#1164);
#1160=PRODUCT_RELATED_PRODUCT_CATEGORY('Base','Base',(#1164));
#1161=APPLICATION_PROTOCOL_DEFINITION('international standard',
'automotive_design',2009,#1162);
#1162=APPLICATION_CONTEXT(
'Core Data for Automotive Mechanical Design Process');
#1163=PRODUCT_CONTEXT('part definition',#1162,'mechanical');
#1164=PRODUCT('Base','Base',$,(#1163));
#1165=PRESENTATION_STYLE_ASSIGNMENT((#1169));
#1166=PRESENTATION_STYLE_ASSIGNMENT((#1170));
#1167=PRESENTATION_STYLE_ASSIGNMENT((#1171));
#1168=PRESENTATION_STYLE_ASSIGNMENT((#1172));
#1169=SURFACE_STYLE_USAGE(.BOTH.,#1181);
#1170=SURFACE_STYLE_USAGE(.BOTH.,#1182);
#1171=SURFACE_STYLE_USAGE(.BOTH.,#1183);
#1172=SURFACE_STYLE_USAGE(.BOTH.,#1184);
#1173=SURFACE_STYLE_RENDERING_WITH_PROPERTIES($,#1197,(#1177));
#1174=SURFACE_STYLE_RENDERING_WITH_PROPERTIES($,#1198,(#1178));
#1175=SURFACE_STYLE_RENDERING_WITH_PROPERTIES($,#1199,(#1179));
#1176=SURFACE_STYLE_RENDERING_WITH_PROPERTIES($,#1200,(#1180));
#1177=SURFACE_STYLE_TRANSPARENT(0.);
#1178=SURFACE_STYLE_TRANSPARENT(0.);
#1179=SURFACE_STYLE_TRANSPARENT(0.);
#1180=SURFACE_STYLE_TRANSPARENT(0.);
#1181=SURFACE_SIDE_STYLE('',(#1185,#1173));
#1182=SURFACE_SIDE_STYLE('',(#1186,#1174));
#1183=SURFACE_SIDE_STYLE('',(#1187,#1175));
#1184=SURFACE_SIDE_STYLE('',(#1188,#1176));
#1185=SURFACE_STYLE_FILL_AREA(#1189);
#1186=SURFACE_STYLE_FILL_AREA(#1190);
#1187=SURFACE_STYLE_FILL_AREA(#1191);
#1188=SURFACE_STYLE_FILL_AREA(#1192);
#1189=FILL_AREA_STYLE('',(#1193));
#1190=FILL_AREA_STYLE('',(#1194));
#1191=FILL_AREA_STYLE('',(#1195));
#1192=FILL_AREA_STYLE('',(#1196));
#1193=FILL_AREA_STYLE_COLOUR('',#1197);
#1194=FILL_AREA_STYLE_COLOUR('',#1198);
#1195=FILL_AREA_STYLE_COLOUR('',#1199);
#1196=FILL_AREA_STYLE_COLOUR('',#1200);
#1197=COLOUR_RGB('',0.749019607843137,0.749019607843137,0.749019607843137);
#1198=COLOUR_RGB('',0.854901960784314,0.694117647058824,0.854901960784314);
#1199=COLOUR_RGB('',1.,1.,1.);
#1200=COLOUR_RGB('',1.,1.,1.);
ENDSEC;
END-ISO-10303-21;
