ISO-10303-21;
HEADER;
/* Generated by software containing ST-Developer
 * from STEP Tools, Inc. (www.steptools.com) 
 */

FILE_DESCRIPTION(
/* description */ (''),
/* implementation_level */ '2;1');

FILE_NAME(
/* name */ 'Knob.stp',
/* time_stamp */ '2026-04-26T10:37:22-07:00',
/* author */ ('bh'),
/* organization */ (''),
/* preprocessor_version */ 'ST-DEVELOPER v20.1',
/* originating_system */ 'Autodesk Inventor 2026',
/* authorisation */ '');

FILE_SCHEMA (('AUTOMOTIVE_DESIGN { 1 0 10303 214 3 1 1 }'));
ENDSEC;

DATA;
#10=MECHANICAL_DESIGN_GEOMETRIC_PRESENTATION_REPRESENTATION('',(#27,#28,
#29,#30,#31,#32,#33,#34,#35,#36,#37),#308);
#11=SHAPE_REPRESENTATION_RELATIONSHIP('SRR','None',#315,#12);
#12=ADVANCED_BREP_SHAPE_REPRESENTATION('',(#13),#307);
#13=MANIFOLD_SOLID_BREP('Solid1',#167);
#14=FACE_BOUND('',#53,.T.);
#15=FACE_BOUND('',#56,.T.);
#16=FACE_BOUND('',#59,.T.);
#17=PLANE('',#196);
#18=PLANE('',#197);
#19=PLANE('',#200);
#20=PLANE('',#201);
#21=PLANE('',#205);
#22=PLANE('',#209);
#23=CYLINDRICAL_SURFACE('',#194,10.);
#24=CYLINDRICAL_SURFACE('',#203,9.1);
#25=CYLINDRICAL_SURFACE('',#207,3.2);
#26=CYLINDRICAL_SURFACE('',#210,4.15);
#27=STYLED_ITEM('',(#325),#157);
#28=STYLED_ITEM('',(#325),#158);
#29=STYLED_ITEM('',(#325),#159);
#30=STYLED_ITEM('',(#325),#160);
#31=STYLED_ITEM('',(#325),#161);
#32=STYLED_ITEM('',(#325),#162);
#33=STYLED_ITEM('',(#325),#163);
#34=STYLED_ITEM('',(#325),#164);
#35=STYLED_ITEM('',(#325),#165);
#36=STYLED_ITEM('',(#325),#166);
#37=STYLED_ITEM('',(#324),#13);
#38=FACE_OUTER_BOUND('',#49,.T.);
#39=FACE_OUTER_BOUND('',#50,.T.);
#40=FACE_OUTER_BOUND('',#51,.T.);
#41=FACE_OUTER_BOUND('',#52,.T.);
#42=FACE_OUTER_BOUND('',#54,.T.);
#43=FACE_OUTER_BOUND('',#55,.T.);
#44=FACE_OUTER_BOUND('',#57,.T.);
#45=FACE_OUTER_BOUND('',#58,.T.);
#46=FACE_OUTER_BOUND('',#60,.T.);
#47=FACE_OUTER_BOUND('',#61,.T.);
#48=FACE_OUTER_BOUND('',#62,.T.);
#49=EDGE_LOOP('',(#119,#120,#121,#122,#123));
#50=EDGE_LOOP('',(#124,#125,#126,#127,#128));
#51=EDGE_LOOP('',(#129));
#52=EDGE_LOOP('',(#130));
#53=EDGE_LOOP('',(#131,#132));
#54=EDGE_LOOP('',(#133,#134,#135,#136));
#55=EDGE_LOOP('',(#137));
#56=EDGE_LOOP('',(#138));
#57=EDGE_LOOP('',(#139,#140,#141,#142));
#58=EDGE_LOOP('',(#143));
#59=EDGE_LOOP('',(#144));
#60=EDGE_LOOP('',(#145,#146,#147,#148));
#61=EDGE_LOOP('',(#149,#150));
#62=EDGE_LOOP('',(#151,#152,#153,#154));
#63=LINE('',#268,#71);
#64=LINE('',#274,#72);
#65=LINE('',#282,#73);
#66=LINE('',#286,#74);
#67=LINE('',#288,#75);
#68=LINE('',#289,#76);
#69=LINE('',#295,#77);
#70=LINE('',#304,#78);
#71=VECTOR('',#217,8.5);
#72=VECTOR('',#224,10.);
#73=VECTOR('',#233,10.);
#74=VECTOR('',#238,10.);
#75=VECTOR('',#239,10.);
#76=VECTOR('',#240,10.);
#77=VECTOR('',#247,9.1);
#78=VECTOR('',#262,4.15);
#79=CIRCLE('',#191,7.);
#80=CIRCLE('',#192,10.);
#81=CIRCLE('',#193,10.);
#82=CIRCLE('',#195,10.);
#83=CIRCLE('',#198,4.15);
#84=CIRCLE('',#199,3.2);
#85=CIRCLE('',#202,9.1);
#86=CIRCLE('',#204,9.1);
#87=CIRCLE('',#206,4.15);
#88=CIRCLE('',#208,3.2);
#89=VERTEX_POINT('',#265);
#90=VERTEX_POINT('',#267);
#91=VERTEX_POINT('',#269);
#92=VERTEX_POINT('',#273);
#93=VERTEX_POINT('',#278);
#94=VERTEX_POINT('',#280);
#95=VERTEX_POINT('',#281);
#96=VERTEX_POINT('',#285);
#97=VERTEX_POINT('',#287);
#98=VERTEX_POINT('',#291);
#99=VERTEX_POINT('',#294);
#100=VERTEX_POINT('',#298);
#101=EDGE_CURVE('',#89,#89,#79,.T.);
#102=EDGE_CURVE('',#89,#90,#63,.T.);
#103=EDGE_CURVE('',#90,#91,#80,.T.);
#104=EDGE_CURVE('',#91,#90,#81,.T.);
#105=EDGE_CURVE('',#91,#92,#64,.T.);
#106=EDGE_CURVE('',#92,#92,#82,.T.);
#107=EDGE_CURVE('',#93,#93,#83,.T.);
#108=EDGE_CURVE('',#94,#95,#65,.T.);
#109=EDGE_CURVE('',#95,#94,#84,.T.);
#110=EDGE_CURVE('',#95,#96,#66,.T.);
#111=EDGE_CURVE('',#96,#97,#67,.T.);
#112=EDGE_CURVE('',#94,#97,#68,.T.);
#113=EDGE_CURVE('',#98,#98,#85,.T.);
#114=EDGE_CURVE('',#98,#99,#69,.T.);
#115=EDGE_CURVE('',#99,#99,#86,.T.);
#116=EDGE_CURVE('',#100,#100,#87,.T.);
#117=EDGE_CURVE('',#97,#96,#88,.T.);
#118=EDGE_CURVE('',#100,#93,#70,.T.);
#119=ORIENTED_EDGE('',*,*,#101,.T.);
#120=ORIENTED_EDGE('',*,*,#102,.T.);
#121=ORIENTED_EDGE('',*,*,#103,.T.);
#122=ORIENTED_EDGE('',*,*,#104,.T.);
#123=ORIENTED_EDGE('',*,*,#102,.F.);
#124=ORIENTED_EDGE('',*,*,#103,.F.);
#125=ORIENTED_EDGE('',*,*,#104,.F.);
#126=ORIENTED_EDGE('',*,*,#105,.T.);
#127=ORIENTED_EDGE('',*,*,#106,.T.);
#128=ORIENTED_EDGE('',*,*,#105,.F.);
#129=ORIENTED_EDGE('',*,*,#101,.F.);
#130=ORIENTED_EDGE('',*,*,#107,.F.);
#131=ORIENTED_EDGE('',*,*,#108,.F.);
#132=ORIENTED_EDGE('',*,*,#109,.F.);
#133=ORIENTED_EDGE('',*,*,#108,.T.);
#134=ORIENTED_EDGE('',*,*,#110,.T.);
#135=ORIENTED_EDGE('',*,*,#111,.T.);
#136=ORIENTED_EDGE('',*,*,#112,.F.);
#137=ORIENTED_EDGE('',*,*,#106,.F.);
#138=ORIENTED_EDGE('',*,*,#113,.F.);
#139=ORIENTED_EDGE('',*,*,#113,.T.);
#140=ORIENTED_EDGE('',*,*,#114,.T.);
#141=ORIENTED_EDGE('',*,*,#115,.T.);
#142=ORIENTED_EDGE('',*,*,#114,.F.);
#143=ORIENTED_EDGE('',*,*,#115,.F.);
#144=ORIENTED_EDGE('',*,*,#116,.F.);
#145=ORIENTED_EDGE('',*,*,#109,.T.);
#146=ORIENTED_EDGE('',*,*,#112,.T.);
#147=ORIENTED_EDGE('',*,*,#117,.T.);
#148=ORIENTED_EDGE('',*,*,#110,.F.);
#149=ORIENTED_EDGE('',*,*,#111,.F.);
#150=ORIENTED_EDGE('',*,*,#117,.F.);
#151=ORIENTED_EDGE('',*,*,#116,.T.);
#152=ORIENTED_EDGE('',*,*,#118,.T.);
#153=ORIENTED_EDGE('',*,*,#107,.T.);
#154=ORIENTED_EDGE('',*,*,#118,.F.);
#155=CONICAL_SURFACE('',#190,8.5,0.785398163397448);
#156=ADVANCED_FACE('',(#38),#155,.T.);
#157=ADVANCED_FACE('',(#39),#23,.T.);
#158=ADVANCED_FACE('',(#40),#17,.T.);
#159=ADVANCED_FACE('',(#41,#14),#18,.T.);
#160=ADVANCED_FACE('',(#42),#19,.F.);
#161=ADVANCED_FACE('',(#43,#15),#20,.T.);
#162=ADVANCED_FACE('',(#44),#24,.F.);
#163=ADVANCED_FACE('',(#45,#16),#21,.T.);
#164=ADVANCED_FACE('',(#46),#25,.F.);
#165=ADVANCED_FACE('',(#47),#22,.T.);
#166=ADVANCED_FACE('',(#48),#26,.F.);
#167=CLOSED_SHELL('',(#156,#157,#158,#159,#160,#161,#162,#163,#164,#165,
#166));
#168=DERIVED_UNIT_ELEMENT(#171,1.);
#169=DERIVED_UNIT_ELEMENT(#310,-3.);
#170=DIMENSIONAL_EXPONENTS(0.,1.,0.,0.,0.,0.,0.);
#171=(
CONVERSION_BASED_UNIT('gram',#173)
MASS_UNIT()
NAMED_UNIT(#170)
);
#172=(
MASS_UNIT()
NAMED_UNIT(*)
SI_UNIT(.KILO.,.GRAM.)
);
#173=MASS_MEASURE_WITH_UNIT(MASS_MEASURE(0.001),#172);
#174=DERIVED_UNIT((#168,#169));
#175=MEASURE_REPRESENTATION_ITEM('density measure',
POSITIVE_RATIO_MEASURE(1.),#174);
#176=PROPERTY_DEFINITION_REPRESENTATION(#181,#178);
#177=PROPERTY_DEFINITION_REPRESENTATION(#182,#179);
#178=REPRESENTATION('material name',(#180),#307);
#179=REPRESENTATION('density',(#175),#307);
#180=DESCRIPTIVE_REPRESENTATION_ITEM('Generic','Generic');
#181=PROPERTY_DEFINITION('material property','material name',#317);
#182=PROPERTY_DEFINITION('material property','density of part',#317);
#183=DATE_TIME_ROLE('creation_date');
#184=APPLIED_DATE_AND_TIME_ASSIGNMENT(#185,#183,(#317));
#185=DATE_AND_TIME(#186,#187);
#186=CALENDAR_DATE(2026,15,2);
#187=LOCAL_TIME(0,0,0.,#188);
#188=COORDINATED_UNIVERSAL_TIME_OFFSET(0,0,.BEHIND.);
#189=AXIS2_PLACEMENT_3D('',#263,#211,#212);
#190=AXIS2_PLACEMENT_3D('',#264,#213,#214);
#191=AXIS2_PLACEMENT_3D('',#266,#215,#216);
#192=AXIS2_PLACEMENT_3D('',#270,#218,#219);
#193=AXIS2_PLACEMENT_3D('',#271,#220,#221);
#194=AXIS2_PLACEMENT_3D('',#272,#222,#223);
#195=AXIS2_PLACEMENT_3D('',#275,#225,#226);
#196=AXIS2_PLACEMENT_3D('',#276,#227,#228);
#197=AXIS2_PLACEMENT_3D('',#277,#229,#230);
#198=AXIS2_PLACEMENT_3D('',#279,#231,#232);
#199=AXIS2_PLACEMENT_3D('',#283,#234,#235);
#200=AXIS2_PLACEMENT_3D('',#284,#236,#237);
#201=AXIS2_PLACEMENT_3D('',#290,#241,#242);
#202=AXIS2_PLACEMENT_3D('',#292,#243,#244);
#203=AXIS2_PLACEMENT_3D('',#293,#245,#246);
#204=AXIS2_PLACEMENT_3D('',#296,#248,#249);
#205=AXIS2_PLACEMENT_3D('',#297,#250,#251);
#206=AXIS2_PLACEMENT_3D('',#299,#252,#253);
#207=AXIS2_PLACEMENT_3D('',#300,#254,#255);
#208=AXIS2_PLACEMENT_3D('',#301,#256,#257);
#209=AXIS2_PLACEMENT_3D('',#302,#258,#259);
#210=AXIS2_PLACEMENT_3D('',#303,#260,#261);
#211=DIRECTION('axis',(0.,0.,1.));
#212=DIRECTION('refdir',(1.,0.,0.));
#213=DIRECTION('center_axis',(0.,-1.,0.));
#214=DIRECTION('ref_axis',(1.,0.,0.));
#215=DIRECTION('center_axis',(0.,-1.,0.));
#216=DIRECTION('ref_axis',(1.,0.,0.));
#217=DIRECTION('',(-0.707106781186548,-0.707106781186548,8.65956056235493E-17));
#218=DIRECTION('center_axis',(0.,1.,0.));
#219=DIRECTION('ref_axis',(1.,0.,0.));
#220=DIRECTION('center_axis',(0.,1.,0.));
#221=DIRECTION('ref_axis',(1.,0.,0.));
#222=DIRECTION('center_axis',(0.,1.,0.));
#223=DIRECTION('ref_axis',(-1.,0.,0.));
#224=DIRECTION('',(0.,-1.,0.));
#225=DIRECTION('center_axis',(0.,1.,0.));
#226=DIRECTION('ref_axis',(-1.,0.,0.));
#227=DIRECTION('center_axis',(0.,1.,0.));
#228=DIRECTION('ref_axis',(0.,0.,1.));
#229=DIRECTION('center_axis',(0.,-1.,0.));
#230=DIRECTION('ref_axis',(0.,0.,-1.));
#231=DIRECTION('center_axis',(0.,1.,0.));
#232=DIRECTION('ref_axis',(1.,0.,0.));
#233=DIRECTION('',(1.46628792765081E-16,0.,-1.));
#234=DIRECTION('center_axis',(0.,-1.,0.));
#235=DIRECTION('ref_axis',(1.,0.,0.));
#236=DIRECTION('center_axis',(-1.,0.,-1.46628792765081E-16));
#237=DIRECTION('ref_axis',(-1.46628792765081E-16,0.,1.));
#238=DIRECTION('',(0.,1.,0.));
#239=DIRECTION('',(-1.46628792765081E-16,0.,1.));
#240=DIRECTION('',(0.,1.,0.));
#241=DIRECTION('center_axis',(0.,-1.,0.));
#242=DIRECTION('ref_axis',(0.,0.,-1.));
#243=DIRECTION('center_axis',(0.,-1.,0.));
#244=DIRECTION('ref_axis',(1.,0.,0.));
#245=DIRECTION('center_axis',(0.,1.,0.));
#246=DIRECTION('ref_axis',(1.,0.,0.));
#247=DIRECTION('',(0.,1.,0.));
#248=DIRECTION('center_axis',(0.,1.,0.));
#249=DIRECTION('ref_axis',(1.,0.,0.));
#250=DIRECTION('center_axis',(0.,-1.,0.));
#251=DIRECTION('ref_axis',(0.,0.,-1.));
#252=DIRECTION('center_axis',(0.,-1.,0.));
#253=DIRECTION('ref_axis',(1.,0.,0.));
#254=DIRECTION('center_axis',(0.,1.,0.));
#255=DIRECTION('ref_axis',(1.,0.,0.));
#256=DIRECTION('center_axis',(0.,1.,0.));
#257=DIRECTION('ref_axis',(1.,0.,0.));
#258=DIRECTION('center_axis',(0.,-1.,0.));
#259=DIRECTION('ref_axis',(0.,0.,-1.));
#260=DIRECTION('center_axis',(0.,1.,0.));
#261=DIRECTION('ref_axis',(1.,0.,0.));
#262=DIRECTION('',(0.,1.,0.));
#263=CARTESIAN_POINT('',(0.,0.,0.));
#264=CARTESIAN_POINT('Origin',(0.,18.5,0.));
#265=CARTESIAN_POINT('',(-7.,20.,-8.57252759403147E-16));
#266=CARTESIAN_POINT('Origin',(0.,20.,0.));
#267=CARTESIAN_POINT('',(-10.,17.,1.22464679914735E-15));
#268=CARTESIAN_POINT('',(-8.5,18.5,1.04094977927525E-15));
#269=CARTESIAN_POINT('',(10.,17.,-1.22464679914735E-15));
#270=CARTESIAN_POINT('Origin',(0.,17.,0.));
#271=CARTESIAN_POINT('Origin',(0.,17.,0.));
#272=CARTESIAN_POINT('Origin',(0.,0.,0.));
#273=CARTESIAN_POINT('',(10.,2.8,0.));
#274=CARTESIAN_POINT('',(10.,0.,-1.22464679914735E-15));
#275=CARTESIAN_POINT('Origin',(0.,2.8,0.));
#276=CARTESIAN_POINT('Origin',(0.,20.,0.));
#277=CARTESIAN_POINT('Origin',(0.,12.8,0.));
#278=CARTESIAN_POINT('',(-4.15,12.8,5.08228421646152E-16));
#279=CARTESIAN_POINT('Origin',(0.,12.8,0.));
#280=CARTESIAN_POINT('',(-1.7,12.8,2.71108834234519));
#281=CARTESIAN_POINT('',(-1.7,12.8,-2.71108834234519));
#282=CARTESIAN_POINT('',(-1.7,12.8,-1.3555441711726));
#283=CARTESIAN_POINT('Origin',(0.,12.8,0.));
#284=CARTESIAN_POINT('Origin',(-1.7,12.4,-2.71108834234519));
#285=CARTESIAN_POINT('',(-1.7,19.1,-2.71108834234519));
#286=CARTESIAN_POINT('',(-1.7,12.4,-2.71108834234519));
#287=CARTESIAN_POINT('',(-1.7,19.1,2.71108834234519));
#288=CARTESIAN_POINT('',(-1.7,19.1,3.78582883923719));
#289=CARTESIAN_POINT('',(-1.7,12.4,2.71108834234519));
#290=CARTESIAN_POINT('Origin',(0.,2.8,0.));
#291=CARTESIAN_POINT('',(-9.1,2.8,-1.11442858722409E-15));
#292=CARTESIAN_POINT('Origin',(0.,2.8,0.));
#293=CARTESIAN_POINT('Origin',(0.,0.,0.));
#294=CARTESIAN_POINT('',(-9.1,4.5,1.11442858722409E-15));
#295=CARTESIAN_POINT('',(-9.1,0.,1.11442858722409E-15));
#296=CARTESIAN_POINT('Origin',(0.,4.5,0.));
#297=CARTESIAN_POINT('Origin',(0.,4.5,0.));
#298=CARTESIAN_POINT('',(-4.15,4.5,-5.08228421646152E-16));
#299=CARTESIAN_POINT('Origin',(0.,4.5,0.));
#300=CARTESIAN_POINT('Origin',(0.,12.4,0.));
#301=CARTESIAN_POINT('Origin',(0.,19.1,0.));
#302=CARTESIAN_POINT('Origin',(0.75,19.1,0.));
#303=CARTESIAN_POINT('Origin',(0.,0.,0.));
#304=CARTESIAN_POINT('',(-4.15,0.,5.08228421646152E-16));
#305=UNCERTAINTY_MEASURE_WITH_UNIT(LENGTH_MEASURE(0.01),#309,
'DISTANCE_ACCURACY_VALUE',
'Maximum model space distance between geometric entities at asserted c
onnectivities');
#306=UNCERTAINTY_MEASURE_WITH_UNIT(LENGTH_MEASURE(0.01),#309,
'DISTANCE_ACCURACY_VALUE',
'Maximum model space distance between geometric entities at asserted c
onnectivities');
#307=(
GEOMETRIC_REPRESENTATION_CONTEXT(3)
GLOBAL_UNCERTAINTY_ASSIGNED_CONTEXT((#305))
GLOBAL_UNIT_ASSIGNED_CONTEXT((#309,#311,#312))
REPRESENTATION_CONTEXT('','3D')
);
#308=(
GEOMETRIC_REPRESENTATION_CONTEXT(3)
GLOBAL_UNCERTAINTY_ASSIGNED_CONTEXT((#306))
GLOBAL_UNIT_ASSIGNED_CONTEXT((#309,#311,#312))
REPRESENTATION_CONTEXT('','3D')
);
#309=(
LENGTH_UNIT()
NAMED_UNIT(*)
SI_UNIT(.MILLI.,.METRE.)
);
#310=(
LENGTH_UNIT()
NAMED_UNIT(*)
SI_UNIT(.CENTI.,.METRE.)
);
#311=(
NAMED_UNIT(*)
PLANE_ANGLE_UNIT()
SI_UNIT($,.RADIAN.)
);
#312=(
NAMED_UNIT(*)
SI_UNIT($,.STERADIAN.)
SOLID_ANGLE_UNIT()
);
#313=SHAPE_DEFINITION_REPRESENTATION(#314,#315);
#314=PRODUCT_DEFINITION_SHAPE('',$,#317);
#315=SHAPE_REPRESENTATION('',(#189),#307);
#316=PRODUCT_DEFINITION_CONTEXT('part definition',#321,'design');
#317=PRODUCT_DEFINITION('Knob','Knob',#318,#316);
#318=PRODUCT_DEFINITION_FORMATION('',$,#323);
#319=PRODUCT_RELATED_PRODUCT_CATEGORY('Knob','Knob',(#323));
#320=APPLICATION_PROTOCOL_DEFINITION('international standard',
'automotive_design',2009,#321);
#321=APPLICATION_CONTEXT(
'Core Data for Automotive Mechanical Design Process');
#322=PRODUCT_CONTEXT('part definition',#321,'mechanical');
#323=PRODUCT('Knob','Knob',$,(#322));
#324=PRESENTATION_STYLE_ASSIGNMENT((#326));
#325=PRESENTATION_STYLE_ASSIGNMENT((#327));
#326=SURFACE_STYLE_USAGE(.BOTH.,#332);
#327=SURFACE_STYLE_USAGE(.BOTH.,#333);
#328=SURFACE_STYLE_RENDERING_WITH_PROPERTIES($,#340,(#330));
#329=SURFACE_STYLE_RENDERING_WITH_PROPERTIES($,#341,(#331));
#330=SURFACE_STYLE_TRANSPARENT(0.);
#331=SURFACE_STYLE_TRANSPARENT(0.);
#332=SURFACE_SIDE_STYLE('',(#334,#328));
#333=SURFACE_SIDE_STYLE('',(#335,#329));
#334=SURFACE_STYLE_FILL_AREA(#336);
#335=SURFACE_STYLE_FILL_AREA(#337);
#336=FILL_AREA_STYLE('',(#338));
#337=FILL_AREA_STYLE('',(#339));
#338=FILL_AREA_STYLE_COLOUR('',#340);
#339=FILL_AREA_STYLE_COLOUR('',#341);
#340=COLOUR_RGB('',0.749019607843137,0.749019607843137,0.749019607843137);
#341=COLOUR_RGB('',1.,1.,1.);
ENDSEC;
END-ISO-10303-21;
